<svg width="18" height="19" viewBox="0 0 18 19" fill="none" xmlns="http://www.w3.org/2000/svg">
<path fill-rule="evenodd" clip-rule="evenodd" d="M9 0.5C4.02945 0.5 0 4.5294 0 9.5C0 14.4705 4.02945 18.5 9 18.5C13.9706 18.5 18 14.4705 18 9.5C18 4.5294 13.9706 0.5 9 0.5ZM9 16.7C5.02993 16.7 1.8 13.4701 1.8 9.5C1.8 5.52993 5.02993 2.3 9 2.3C12.9701 2.3 16.2 5.52993 16.2 9.5C16.2 13.4701 12.9701 16.7 9 16.7ZM10.127 5.9C10.127 6.55254 9.65187 7.025 9.00914 7.025C8.34042 7.025 7.87697 6.55254 7.87697 5.88752C7.87697 5.24836 8.35296 4.775 9.00914 4.775C9.65187 4.775 10.127 5.24835 10.127 5.9ZM8.10197 8.6H9.90197V14H8.10197V8.6Z" fill="#005FF9"/>
</svg>
