<svg width="250" height="158" viewBox="0 0 250 158" fill="none" xmlns="http://www.w3.org/2000/svg">
<path d="M228.303 69.9746C234.833 58.0655 249.241 47.4433 245.855 32.5328C242.66 18.4722 220.85 5.46124 206.989 13.7007C198.162 18.9474 194.173 26.9005 182.884 28.143C174.241 29.0942 163.049 28.5607 156.218 22.6922C150.969 18.1835 147.672 13.1843 141.173 9.87048C129.918 4.13135 116.348 3.50689 103.874 4.64548C85.7207 6.30255 78.4907 24.6023 62.7585 30.3676C53.1153 33.9015 42.1337 32.4459 32.3175 30.3858C23.2107 28.4746 11.0306 22.8731 4.11057 31.9328C-2.52889 40.6253 -0.243667 58.2067 4.74525 67.2621C8.15775 73.4562 16.3361 75.888 19.2766 82.5178C22.2838 89.2982 17.5659 95.4694 12.9923 100.472C2.47242 111.977 4.30481 146.49 24.9161 147.581C34.7811 148.103 44.6674 143.336 54.4865 145.708C62.5341 147.652 67.7554 154.989 76.2781 155.812C84.3735 156.593 92.182 155.058 99.5352 151.942C107.879 148.406 115.684 143.983 124.944 142.983C133.719 142.035 143.301 142.755 152.051 143.706C159.479 144.513 166.813 146.067 173.771 148.689C180.356 151.171 186.553 155.657 193.753 156.334C210.518 157.911 232.284 159.006 244.396 145.588C251.871 137.306 251.551 124.764 245.317 115.93C241.56 110.606 234.065 109.326 230.676 104.558C225.294 96.9834 223.795 78.1977 228.303 69.9746Z" fill="url(#paint0_linear_2327_788)"/>
<path d="M102.827 93.6906C100.444 82.3476 94.5793 72.8997 87.1081 66.9315C80.4293 61.5964 76.0039 53.9024 74.9299 45.4304C74.817 44.5399 74.6667 43.6429 74.4774 42.7424C71.6115 29.1005 60.9298 19.7975 50.6189 21.9635C40.3081 24.1294 34.2726 36.9443 37.1384 50.5862C37.7244 53.3758 38.6374 55.9832 39.8073 58.3479C43.541 65.895 44.4272 74.5774 41.966 82.6335C39.7666 89.8331 39.3326 98.1495 41.1191 106.654C43.7836 119.337 50.8013 129.652 59.5506 135.381C62.8599 137.548 65.7637 140.303 68.0756 143.509C71.9174 148.837 77.7918 151.76 83.5806 150.544C89.8254 149.232 94.2227 143.47 95.2149 136.322C95.7764 132.277 97.1271 128.395 99.055 124.792C103.606 116.285 105.236 105.159 102.827 93.6906Z" fill="#BDD0FB"/>
<path d="M57.2788 35.7178C60.5197 44.4507 63.4776 53.2807 66.343 62.1416C67.0604 64.3565 67.742 66.5827 68.4308 68.8066L69.4635 72.1427L70.4683 75.4874C71.1295 77.7198 71.8217 79.943 72.4576 82.1831L74.3659 88.9027C75.5809 93.3986 76.8341 97.8839 77.9654 102.402C78.5342 104.661 79.147 106.907 79.67 109.177L81.27 115.978C83.3116 125.067 85.1257 134.212 86.4738 143.43L86.077 143.492L84.806 136.633L84.492 134.919L84.1353 133.212L83.4153 129.8L82.7019 126.387C82.4663 125.249 82.1882 124.119 81.9334 122.985C81.4088 120.72 80.9019 118.452 80.3626 116.191C78.1463 107.159 75.8102 98.1572 73.2887 89.2043C71.9937 84.7377 70.737 80.2602 69.4109 75.8023L68.4255 72.4562L67.4121 69.1183C66.7379 66.8927 66.0634 64.6669 65.3667 62.4481C64.011 57.9987 62.6234 53.5584 61.1995 49.1298C59.799 44.6938 58.3563 40.2698 56.9004 35.8523L57.2788 35.7178Z" fill="#BDD0FB"/>
<g opacity="0.5">
<path d="M45.3148 60.9578C45.2188 60.9399 45.1313 60.8807 45.0804 60.7886C39.0003 49.756 39.9797 41.4563 41.8717 36.4364C43.9274 30.983 47.3806 28.1918 47.5266 28.0756C47.6727 27.9591 47.8851 27.9835 48.0016 28.1296C48.1179 28.2757 48.0939 28.4883 47.9479 28.6049C47.9135 28.6324 44.4764 31.4175 42.4921 36.7089C40.6613 41.5902 39.7271 49.6734 45.6727 60.462C45.7628 60.6257 45.7034 60.8314 45.5398 60.9215C45.4686 60.9608 45.3891 60.9716 45.3148 60.9578Z" fill="#BDD0FB"/>
</g>
<path d="M59.3072 118.708C55.4372 113.467 50.235 110.007 45.0278 108.698C40.3729 107.528 36.3152 104.628 33.7847 100.55C33.5187 100.121 33.2321 99.698 32.9248 99.2819C28.2704 92.9795 20.6453 90.7151 15.8936 94.2244C11.1417 97.7335 11.0627 105.687 15.7171 111.99C16.6688 113.279 17.7447 114.398 18.8948 115.334C22.5653 118.32 25.0492 122.549 25.6795 127.239C26.2426 131.43 27.9677 135.78 30.869 139.709C35.1963 145.569 41.1895 149.204 46.9926 150.092C49.1876 150.429 51.3134 151.16 53.2427 152.259C56.4489 154.086 60.129 154.21 62.7969 152.24C65.6748 150.115 66.5691 146.147 65.4023 142.263C64.7421 140.066 64.5223 137.768 64.6623 135.477C64.9928 130.07 63.2199 124.006 59.3072 118.708Z" fill="#BDD0FB"/>
<path d="M22.5091 99.7002C26.2059 103.407 29.7809 107.229 33.3161 111.089C34.2004 112.053 35.069 113.032 35.9408 114.008L37.2483 115.472L38.5436 116.947C39.4033 117.933 40.2767 118.908 41.1252 119.904L43.671 122.893C45.3429 124.907 47.0318 126.906 48.6663 128.952C49.4848 129.973 50.3232 130.978 51.1211 132.016L53.5289 135.118C56.6972 139.286 59.7627 143.536 62.6077 147.932L62.4198 148.056L60.1664 144.847L59.605 144.045L59.0235 143.256L57.8578 141.68L56.6952 140.102C56.3087 139.576 55.9026 139.064 55.5071 138.544C54.7094 137.509 53.9201 136.468 53.1157 135.438C49.8717 131.34 46.5735 127.285 43.1922 123.298C41.4864 121.317 39.7977 119.323 38.0779 117.354L36.7922 115.874L35.4942 114.404C34.6294 113.424 33.7645 112.444 32.8899 111.473C31.1572 109.516 29.4104 107.57 27.6477 105.639C25.8952 103.699 24.124 101.775 22.3477 99.8569L22.5091 99.7002Z" fill="url(#paint1_linear_2327_788)"/>
<g opacity="0.5">
<path d="M23.7281 114.831C23.6722 114.848 23.6093 114.841 23.5567 114.806C17.2662 110.636 15.4824 105.958 15.0935 102.768C14.6711 99.3019 15.7297 96.8615 15.775 96.7592C15.8202 96.6568 15.9398 96.6108 16.0422 96.6561C16.1445 96.7013 16.1908 96.8208 16.1455 96.9232C16.1349 96.9474 15.0833 99.3801 15.4985 102.74C15.8815 105.84 17.6292 110.391 23.7805 114.468C23.8738 114.53 23.8993 114.656 23.8376 114.749C23.8106 114.79 23.7714 114.818 23.7281 114.831Z" fill="white"/>
</g>
<path d="M156.613 100.97C158.581 91.6046 163.423 83.8039 169.591 78.8764C175.106 74.4715 178.759 68.1189 179.646 61.1241C179.74 60.3889 179.864 59.6483 180.02 58.9047C182.386 47.6413 191.205 39.9604 199.718 41.7487C208.232 43.5371 213.215 54.1177 210.849 65.3809C210.365 67.6841 209.611 69.8369 208.645 71.7894C205.562 78.0206 204.831 85.1892 206.863 91.8407C208.679 97.785 209.037 104.651 207.562 111.673C205.362 122.145 199.568 130.661 192.344 135.392C189.612 137.181 187.214 139.455 185.306 142.102C182.134 146.501 177.283 148.914 172.504 147.91C167.348 146.827 163.717 142.07 162.898 136.169C162.434 132.829 161.319 129.624 159.727 126.648C155.97 119.625 154.624 110.439 156.613 100.97Z" fill="#BDD0FB"/>
<path opacity="0.57" d="M194.22 53.1045C191.544 60.3148 189.102 67.6053 186.736 74.9211C186.144 76.7498 185.581 78.5879 185.012 80.4241L184.16 83.1785L183.33 85.94C182.784 87.7832 182.213 89.6189 181.688 91.4683L180.112 97.0163C179.109 100.728 178.074 104.432 177.14 108.162C176.671 110.027 176.165 111.882 175.733 113.756L174.412 119.371C172.726 126.875 171.228 134.426 170.115 142.037L170.443 142.088L171.492 136.425L171.752 135.009L172.046 133.6L172.641 130.782L173.23 127.965C173.424 127.025 173.654 126.093 173.864 125.156C174.297 123.286 174.716 121.413 175.161 119.546C176.991 112.089 178.92 104.657 181.002 97.2652C182.071 93.5772 183.108 89.8805 184.203 86.1998L185.017 83.4371L185.854 80.6812C186.41 78.8436 186.967 77.0059 187.542 75.174C188.662 71.5003 189.807 67.8343 190.983 64.1778C192.139 60.5151 193.331 56.8625 194.533 53.2153L194.22 53.1045Z" fill="white"/>
<path opacity="0.5" d="M204.096 73.9442C204.175 73.9295 204.247 73.8807 204.289 73.8046C209.309 64.6955 208.501 57.8429 206.938 53.6983C205.241 49.1956 202.39 46.8912 202.269 46.7952C202.149 46.699 201.973 46.7191 201.877 46.8398C201.781 46.9603 201.801 47.136 201.922 47.2321C201.95 47.2548 204.788 49.5542 206.426 53.9231C207.938 57.9534 208.709 64.6273 203.8 73.5348C203.726 73.6699 203.775 73.8398 203.91 73.9141C203.969 73.9469 204.034 73.9558 204.096 73.9442Z" fill="white"/>
<path d="M193.329 117.486C196.982 112.539 201.893 109.272 206.809 108.037C211.203 106.932 215.034 104.195 217.423 100.344C217.674 99.9398 217.945 99.5402 218.235 99.1475C222.628 93.1979 229.827 91.0603 234.312 94.373C238.798 97.6858 238.873 105.194 234.479 111.144C233.581 112.361 232.565 113.418 231.479 114.301C228.014 117.12 225.669 121.113 225.074 125.54C224.543 129.496 222.914 133.603 220.175 137.312C216.09 142.843 210.432 146.275 204.954 147.114C202.882 147.431 200.875 148.121 199.054 149.159C196.027 150.884 192.553 151.002 190.034 149.142C187.318 147.135 186.473 143.389 187.575 139.723C188.198 137.649 188.406 135.479 188.273 133.317C187.961 128.213 189.635 122.488 193.329 117.486Z" fill="#91B3FA"/>
<path opacity="0.57" d="M228.067 99.543C224.577 103.042 221.202 106.651 217.865 110.294C217.03 111.205 216.21 112.129 215.387 113.05L214.153 114.432L212.93 115.824C212.118 116.755 211.294 117.676 210.493 118.616L208.089 121.437C206.511 123.339 204.917 125.226 203.374 127.157C202.601 128.121 201.81 129.07 201.056 130.05L198.783 132.978C195.792 136.913 192.899 140.925 190.213 145.075L190.39 145.192L192.518 142.163L193.048 141.405L193.596 140.66L194.697 139.173L195.795 137.684C196.159 137.187 196.543 136.703 196.916 136.212C197.669 135.235 198.414 134.252 199.174 133.28C202.236 129.411 205.35 125.583 208.542 121.82C210.152 119.95 211.746 118.067 213.37 116.208L214.583 114.811L215.809 113.424C216.625 112.499 217.442 111.574 218.267 110.657C219.903 108.809 221.552 106.972 223.216 105.149C224.871 103.318 226.543 101.501 228.219 99.6908L228.067 99.543Z" fill="white"/>
<path opacity="0.5" d="M226.919 113.826C226.971 113.842 227.031 113.836 227.08 113.803C233.019 109.867 234.703 105.45 235.07 102.438C235.469 99.1665 234.469 96.8627 234.426 96.7662C234.384 96.6694 234.271 96.6261 234.174 96.6688C234.078 96.7115 234.034 96.8244 234.077 96.9211C234.087 96.9439 235.08 99.2404 234.687 102.412C234.326 105.339 232.676 109.635 226.869 113.484C226.781 113.542 226.757 113.661 226.815 113.749C226.841 113.788 226.878 113.814 226.919 113.826Z" fill="white"/>
<path d="M131.598 137.333H118.395V150.537H131.598V137.333Z" fill="url(#paint2_linear_2327_788)"/>
<path d="M52.0743 137.306C52.0743 138.742 53.2509 139.918 54.6888 139.918H196.071C197.509 139.918 198.686 138.742 198.686 137.306L199.862 56.0571C199.862 54.6205 198.17 51.8159 195.068 52.0267L56.8932 48.4514C55.089 48.4047 53.3444 49.0992 52.0668 50.3727C50.7892 51.6462 50.0901 53.3874 50.1327 55.19L52.0743 137.306Z" fill="url(#paint3_linear_2327_788)"/>
<path d="M54.6545 133.305C54.6545 134.643 55.7676 135.738 57.128 135.738H192.661C194.021 135.738 195.134 134.643 195.134 133.305L196.244 60.7782C196.114 56.4136 192.222 54.845 189.863 54.9376L57.4318 51.444C56.1642 51.4105 54.9383 51.8904 54.0408 52.7713C53.1434 53.6522 52.6532 54.8569 52.6851 56.1033L54.6545 133.305Z" fill="url(#paint4_linear_2327_788)"/>
<path d="M193.671 99.7321C193.67 99.7321 193.668 99.7321 193.666 99.7321C193.481 99.7294 193.333 99.5769 193.336 99.3918L193.424 93.4103C193.427 93.2253 193.578 93.0907 193.764 93.0801C193.949 93.0828 194.097 93.2353 194.094 93.4203L194.006 99.4019C194.003 99.5852 193.854 99.7321 193.671 99.7321Z" fill="#91B3FA"/>
<path d="M193.885 85.0738C193.883 85.0738 193.882 85.0738 193.88 85.0738C193.695 85.0711 193.547 84.9184 193.55 84.7334L193.886 61.8235C193.88 60.4544 193.464 59.3614 192.65 58.5815C191.133 57.1281 188.727 57.2033 188.624 57.2064L146.299 56.0715C146.114 56.0668 145.968 55.9126 145.973 55.7276C145.978 55.5455 146.127 55.4014 146.308 55.4014C146.311 55.4014 146.314 55.4014 146.317 55.4017L188.619 56.5366C188.881 56.5242 191.423 56.4777 193.114 58.0975C194.064 59.0081 194.549 60.2629 194.557 61.827L194.22 84.7437C194.217 84.9269 194.068 85.0738 193.885 85.0738Z" fill="#91B3FA"/>
<path d="M156.55 148.252H93.7817C92.5442 148.252 91.541 149.214 91.541 150.451C91.541 151.503 92.3936 152.315 93.4455 152.315H156.55C157.602 152.315 158.261 151.466 158.261 150.414V150.078C158.261 149.026 157.602 148.252 156.55 148.252Z" fill="url(#paint5_linear_2327_788)"/>
<path d="M168.708 29.9209C174.216 24.4126 174.216 15.4819 168.708 9.97362C163.2 4.46532 154.269 4.46532 148.761 9.97362C143.252 15.4819 143.252 24.4126 148.761 29.9209C154.269 35.4292 163.2 35.4292 168.708 29.9209Z" fill="#7D97F4"/>
<path opacity="0.94" d="M161.188 11.1746C160.797 11.0355 160.386 11.3292 160.386 11.7446V12.5956V14.2642V22.5596C159.566 21.8852 158.422 21.4647 157.153 21.4647C154.661 21.4647 152.641 23.0808 152.641 25.0744C152.641 27.068 154.661 28.6841 157.153 28.6841C159.645 28.6841 161.665 27.068 161.665 25.0744C161.665 25.057 161.662 25.0403 161.661 25.023H161.665V14.2715C163.452 14.5422 164.667 15.8995 165.377 17.0081C165.676 17.4735 166.392 17.2382 166.362 16.686C166.185 13.3354 162.776 11.739 161.188 11.1746Z" fill="white"/>
<path d="M101.23 29.9717C106.738 24.4634 106.738 15.5327 101.23 10.0244C95.7212 4.5161 86.7905 4.5161 81.2822 10.0244C75.7739 15.5327 75.7739 24.4634 81.2822 29.9717C86.7905 35.48 95.7212 35.48 101.23 29.9717Z" fill="#7D97F4"/>
<g opacity="0.88">
<path d="M100.618 27.3855C100.618 27.6659 100.391 27.8933 100.11 27.8933H82.5899C82.3093 27.8933 82.082 27.6659 82.082 27.3855V12.9121C82.082 12.6317 82.3094 12.4043 82.5899 12.4043H100.11C100.391 12.4043 100.618 12.6317 100.618 12.9121V27.3855ZM83.0977 26.8777H99.6024V13.4201H83.0977V26.8777Z" fill="white"/>
<path d="M95.945 17.7008C95.8057 17.5201 95.5675 17.4136 95.3393 17.4121C95.1112 17.4106 94.8833 17.5144 94.7417 17.6932L90.9998 22.4123C90.8713 22.5747 90.6776 22.6759 90.471 22.6914C90.2644 22.7068 90.0594 22.6351 89.9081 22.4935L87.0578 19.8278C86.7761 19.5643 86.386 19.5608 86.1004 19.8198L82.5898 23.0434V27.3851H100.11V23.0434L95.945 17.7008Z" fill="white"/>
<path d="M88.5263 17.4397C89.2287 16.7374 89.2287 15.5986 88.5263 14.8962C87.8239 14.1938 86.6851 14.1938 85.9827 14.8962C85.2803 15.5986 85.2803 16.7374 85.9827 17.4397C86.6851 18.1421 87.8239 18.1421 88.5263 17.4397Z" fill="white"/>
</g>
<path d="M173.872 117.951L75.1588 115.548C73.4629 115.506 72.1094 114.12 72.1094 112.423V63.5152C72.1094 61.789 73.5087 60.3896 75.2349 60.3896H172.547C174.24 60.3896 175.625 61.7376 175.671 63.4299L177.072 114.741C177.121 116.53 175.661 117.994 173.872 117.951Z" fill="url(#paint6_linear_2327_788)"/>
<path d="M72.1074 104.968V112.423C72.1074 114.12 73.4608 115.506 75.1569 115.548L173.87 117.951C175.659 117.994 177.119 116.53 177.07 114.741L176.803 104.968L72.1074 104.968Z" fill="url(#paint7_linear_2327_788)"/>
<path d="M75.0453 110.445L75.1354 111.344C75.218 112.169 75.9119 112.797 76.7404 112.797H163.92C164.811 112.797 165.533 112.074 165.533 111.184C165.533 110.299 164.821 109.58 163.936 109.571L76.6669 108.671C75.7059 108.661 74.9494 109.488 75.0453 110.445Z" fill="#7D97F4"/>
<path d="M130.837 111.764C130.735 110.927 130.61 110.078 130.49 109.226L76.667 108.671C75.7059 108.661 74.9494 109.489 75.0453 110.445L75.1354 111.345C75.2182 112.169 75.912 112.797 76.7404 112.797H130.988C130.931 112.435 130.877 112.088 130.837 111.764Z" fill="url(#paint8_linear_2327_788)"/>
<path d="M134.185 110.929C134.185 112.539 132.879 113.845 131.268 113.845C129.658 113.845 128.352 112.539 128.352 110.929C128.352 109.318 129.657 108.012 131.268 108.012C132.879 108.012 134.185 109.318 134.185 110.929Z" fill="white"/>
<path d="M169.283 108.8H167.541V112.758H169.283V108.8Z" fill="#7D97F4"/>
<path d="M174.033 107.691H172.291V112.758H174.033V107.691Z" fill="#7D97F4"/>
<path d="M171.658 106.741H170.074V112.758H171.658V106.741Z" fill="#7D97F4"/>
<path d="M72.0704 121.765L72.1515 130.135C72.1631 131.333 73.1434 132.294 74.3409 132.283L173.87 131.318C175.068 131.307 176.029 130.327 176.018 129.129L175.963 123.454C175.951 122.279 175.007 121.327 173.832 121.307L74.2764 119.576C73.0561 119.554 72.0587 120.544 72.0704 121.765Z" fill="#7D97F4"/>
<path d="M150.636 124.66H75.3805C75.2469 124.66 75.1387 124.552 75.1387 124.419V122.955C75.1387 122.821 75.2469 122.713 75.3805 122.713H150.636C150.77 122.713 150.878 122.821 150.878 122.955V124.419C150.878 124.552 150.77 124.66 150.636 124.66Z" fill="#BDD0FB"/>
<path d="M128.347 127.04H75.3805C75.2469 127.04 75.1387 126.932 75.1387 126.798V125.767C75.1387 125.634 75.2469 125.525 75.3805 125.525H128.347C128.481 125.525 128.589 125.634 128.589 125.767V126.798C128.589 126.932 128.481 127.04 128.347 127.04Z" fill="#BDD0FB"/>
<path d="M103.913 129.421H75.362C75.2387 129.421 75.1387 129.321 75.1387 129.198V128.562C75.1387 128.439 75.2387 128.339 75.362 128.339H103.913C104.036 128.339 104.136 128.439 104.136 128.562V129.198C104.136 129.321 104.036 129.421 103.913 129.421Z" fill="#BDD0FB"/>
<g opacity="0.9">
<path d="M132.054 84.8969L120.275 78.0966C120.138 78.0173 119.997 78.0173 119.86 78.0966C119.722 78.1759 119.666 78.3225 119.666 78.4811V92.0817C119.666 92.2403 119.722 92.3868 119.86 92.4662C119.997 92.5454 120.152 92.5454 120.29 92.4662L132.061 85.6659C132.198 85.5865 132.28 85.44 132.28 85.2814C132.28 85.1227 132.191 84.9762 132.054 84.8969Z" fill="white"/>
<path d="M124.544 97.8386C117.62 97.8386 111.986 92.2053 111.986 85.2811C111.986 78.3569 117.62 72.7236 124.544 72.7236C131.468 72.7236 137.101 78.3569 137.101 85.2811C137.101 92.2054 131.468 97.8386 124.544 97.8386ZM124.544 73.4229C118.005 73.4229 112.686 78.7424 112.686 85.2811C112.686 91.8198 118.005 97.1394 124.544 97.1394C131.083 97.1394 136.402 91.8197 136.402 85.2811C136.402 78.7425 131.082 73.4229 124.544 73.4229Z" fill="white"/>
</g>
<path d="M45.2725 46.2168C50.7808 40.7085 50.7808 31.7778 45.2725 26.2695C39.7642 20.7612 30.8335 20.7612 25.3252 26.2695C19.8169 31.7778 19.8169 40.7085 25.3252 46.2168C30.8335 51.7251 39.7642 51.7251 45.2725 46.2168Z" fill="#7D97F4"/>
<g opacity="0.93">
<path d="M46.0375 40.442L45.2009 35.0958C45.2003 34.6261 45.1258 34.1741 44.9902 33.7492L44.9535 33.5143L44.9181 33.5668C44.2886 31.8779 42.666 30.6875 40.7577 30.6875H31.1088C28.6547 30.6875 26.6652 32.6621 26.6652 35.1162C26.6652 35.4429 26.7028 35.753 26.7698 36.0597L26.0828 40.4457C26.0285 40.7927 26.1287 41.1594 26.3572 41.4263C26.5856 41.6933 26.9194 41.86 27.2707 41.86H28.6646C29.3211 41.86 29.9611 41.6536 30.4939 41.27L32.8484 39.5748H39.2722L41.6266 41.27C42.1595 41.6536 42.7994 41.86 43.456 41.86H44.8499C45.2012 41.86 45.535 41.6914 45.7634 41.4245C45.9918 41.1575 46.0919 40.789 46.0375 40.442ZM31.2779 37.8097C29.7587 37.8097 28.5272 36.5782 28.5272 35.0589C28.5272 33.5397 29.7588 32.3082 31.2779 32.3082C32.7972 32.3082 34.0287 33.5397 34.0287 35.0589C34.0288 36.5782 32.7972 37.8097 31.2779 37.8097ZM40.419 37.8097C38.8998 37.8097 37.6683 36.5782 37.6683 35.0589C37.6683 33.5397 38.8998 32.3082 40.419 32.3082C41.9383 32.3082 43.1698 33.5397 43.1698 35.0589C43.1698 36.5782 41.9383 37.8097 40.419 37.8097Z" fill="white"/>
<path d="M32.5688 34.4961H31.8145V33.6411C31.8145 33.3957 31.5446 33.2266 31.2992 33.2266H31.1722C30.9268 33.2266 30.7989 33.3957 30.7989 33.6411V34.4961H29.9027C29.6572 34.4961 29.5293 34.6653 29.5293 34.9107V35.0377C29.5293 35.2831 29.6573 35.5118 29.9027 35.5118H30.7989V36.3072C30.7989 36.5527 30.9269 36.7813 31.1722 36.7813H31.2992C31.5446 36.7813 31.8145 36.5527 31.8145 36.3072V35.5118H32.5688C32.8142 35.5118 33.0841 35.2831 33.0841 35.0377V34.9107C33.0841 34.6653 32.8142 34.4961 32.5688 34.4961Z" fill="white"/>
<path d="M41.211 33.7344C41.211 34.0148 40.9836 34.2422 40.7031 34.2422C40.4227 34.2422 40.1953 34.0148 40.1953 33.7344C40.1953 33.454 40.4227 33.2266 40.7031 33.2266C40.9836 33.2265 41.211 33.4538 41.211 33.7344Z" fill="white"/>
<path d="M41.211 36.5274C41.211 36.8078 40.9836 37.0352 40.7031 37.0352C40.4227 37.0352 40.1953 36.8078 40.1953 36.5274C40.1953 36.2469 40.4227 36.0195 40.7031 36.0195C40.9836 36.0195 41.211 36.2469 41.211 36.5274Z" fill="white"/>
<path d="M42.4785 35.0039C42.4785 35.2844 42.2512 35.5117 41.9707 35.5117C41.6903 35.5117 41.4629 35.2844 41.4629 35.0039C41.4629 34.7235 41.6903 34.4961 41.9707 34.4961C42.2512 34.4961 42.4785 34.7234 42.4785 35.0039Z" fill="white"/>
<path d="M39.6875 35.0039C39.6875 35.2844 39.4601 35.5117 39.1797 35.5117C38.8993 35.5117 38.6719 35.2844 38.6719 35.0039C38.6719 34.7235 38.8993 34.4961 39.1797 34.4961C39.4602 34.4961 39.6875 34.7234 39.6875 35.0039Z" fill="white"/>
</g>
<path d="M224.673 40.1299C230.181 34.6216 230.181 25.6909 224.673 20.1826C219.165 14.6743 210.234 14.6743 204.726 20.1826C199.217 25.6909 199.217 34.6216 204.726 40.1299C210.234 45.6382 219.165 45.6382 224.673 40.1299Z" fill="#7D97F4"/>
<path opacity="0.93" d="M224.028 21.292H205.492V38.0506H224.028V21.292ZM208.031 24.1518C208.031 24.2551 207.948 24.3391 207.844 24.3391H206.187C206.084 24.3391 206 24.2553 206 24.1518V22.241C206 22.1376 206.084 22.0537 206.187 22.0537H207.844C207.948 22.0537 208.031 22.1375 208.031 22.241V24.1518ZM211.078 24.1518C211.078 24.2551 210.995 24.3391 210.891 24.3391H209.234C209.131 24.3391 209.047 24.2553 209.047 24.1518V22.241C209.047 22.1376 209.131 22.0537 209.234 22.0537H210.891C210.995 22.0537 211.078 22.1375 211.078 22.241V24.1518ZM214.125 24.1518C214.125 24.2551 214.042 24.3391 213.938 24.3391H212.281C212.178 24.3391 212.094 24.2553 212.094 24.1518V22.241C212.094 22.1376 212.178 22.0537 212.281 22.0537H213.938C214.042 22.0537 214.125 22.1375 214.125 22.241V24.1518ZM216.919 24.1518C216.919 24.2551 216.835 24.3391 216.731 24.3391H215.074C214.971 24.3391 214.887 24.2553 214.887 24.1518V22.241C214.887 22.1376 214.971 22.0537 215.074 22.0537H216.731C216.835 22.0537 216.919 22.1375 216.919 22.241V24.1518ZM219.966 24.1518C219.966 24.2551 219.882 24.3391 219.778 24.3391H218.122C218.018 24.3391 217.934 24.2553 217.934 24.1518V22.241C217.934 22.1376 218.018 22.0537 218.122 22.0537H219.778C219.882 22.0537 219.966 22.1375 219.966 22.241V24.1518ZM223.013 24.1518C223.013 24.2551 222.929 24.3391 222.825 24.3391H221.169C221.065 24.3391 220.981 24.2553 220.981 24.1518V22.241C220.981 22.1376 221.065 22.0537 221.169 22.0537H222.825C222.929 22.0537 223.013 22.1375 223.013 22.241V24.1518ZM208.031 36.8478C208.031 36.9512 207.948 37.035 207.844 37.035H206.187C206.084 37.035 206 36.9512 206 36.8478V34.9369C206 34.8334 206.084 34.7496 206.187 34.7496H207.844C207.948 34.7496 208.031 34.8334 208.031 34.9369V36.8478ZM211.078 36.8478C211.078 36.9512 210.995 37.035 210.891 37.035H209.234C209.131 37.035 209.047 36.9512 209.047 36.8478V34.9369C209.047 34.8334 209.131 34.7496 209.234 34.7496H210.891C210.995 34.7496 211.078 34.8334 211.078 34.9369V36.8478ZM214.125 36.8478C214.125 36.9512 214.042 37.035 213.938 37.035H212.281C212.178 37.035 212.094 36.9512 212.094 36.8478V34.9369C212.094 34.8334 212.178 34.7496 212.281 34.7496H213.938C214.042 34.7496 214.125 34.8334 214.125 34.9369V36.8478ZM216.919 36.8478C216.919 36.9512 216.835 37.035 216.731 37.035H215.074C214.971 37.035 214.887 36.9512 214.887 36.8478V34.9369C214.887 34.8334 214.971 34.7496 215.074 34.7496H216.731C216.835 34.7496 216.919 34.8334 216.919 34.9369V36.8478ZM219.966 36.8478C219.966 36.9512 219.882 37.035 219.778 37.035H218.122C218.018 37.035 217.934 36.9512 217.934 36.8478V34.9369C217.934 34.8334 218.018 34.7496 218.122 34.7496H219.778C219.882 34.7496 219.966 34.8334 219.966 34.9369V36.8478ZM223.013 36.8478C223.013 36.9512 222.929 37.035 222.825 37.035H221.169C221.065 37.035 220.981 36.9512 220.981 36.8478V34.9369C220.981 34.8334 221.065 34.7496 221.169 34.7496H222.825C222.929 34.7496 223.013 34.8334 223.013 34.9369V36.8478Z" fill="white"/>
<path d="M214.721 119.593L220.016 120.916L218.692 130.845C218.692 130.845 220.677 132.83 221.339 135.478C222.001 138.125 222.611 149.241 222.611 149.241L223.868 150.001L224.021 150.635L220.366 155.55L220.972 151.638C221.068 151.017 220.901 149.758 220.954 149.731C218.968 144.436 214.721 129.521 214.721 129.521V119.593Z" fill="url(#paint9_linear_2327_788)"/>
<path d="M213.172 150.704C213.23 150.703 213.286 150.707 213.343 150.704C213.088 147.512 211.918 133.463 210.748 128.198C209.424 122.241 212.734 110.327 212.734 110.327L218.69 116.284L215.381 127.536C217.649 130.938 215.011 150.859 215.068 150.851L215.064 150.895L215.928 152.082L215.823 152.726L210.548 155.839L212.623 152.468C212.953 151.933 213.135 151.327 213.172 150.704Z" fill="url(#paint10_linear_2327_788)"/>
<path d="M219.873 83.9082C219.873 83.9082 231.471 96.9797 219.873 103.682L218.691 102.826C218.691 102.826 224.449 97.3126 218.691 90.5629L219.873 83.9082Z" fill="url(#paint11_linear_2327_788)"/>
<path d="M210.201 156.326H211.884C212.2 156.326 212.497 156.182 212.689 155.932C213.214 155.25 214.301 153.92 214.821 153.885C215.521 153.838 215.431 156.326 215.431 156.326H215.823L216.32 153.234C216.445 152.456 216.059 151.686 215.36 151.321C215.36 151.321 215.2 152.504 214.333 153.028C213.465 153.551 210.802 155.425 210.802 155.425C210.802 155.425 210.476 155.379 210.118 155.444C209.587 155.54 209.661 156.326 210.201 156.326Z" fill="url(#paint12_linear_2327_788)"/>
<path d="M220.235 156.134L221.787 155.482C222.078 155.359 222.295 155.111 222.376 154.806C222.595 153.974 223.081 152.326 223.547 152.093C224.174 151.778 225.056 154.106 225.056 154.106L225.418 153.954L224.677 150.911C224.491 150.146 223.835 149.586 223.05 149.521C223.05 149.521 223.361 150.673 222.765 151.492C222.168 152.311 220.44 155.071 220.44 155.071C220.44 155.071 220.122 155.154 219.817 155.353C219.365 155.647 219.738 156.344 220.235 156.134Z" fill="url(#paint13_linear_2327_788)"/>
<path d="M211.215 100.254C211.215 100.254 211.41 101.448 211.125 104.727C210.84 108.007 209.476 115.707 209.754 123.075C209.754 123.075 213.629 123.978 220.363 123.55C220.363 123.55 223.204 112.047 222.512 107.674C221.82 103.301 218.065 100.164 218.065 100.164L211.215 100.254Z" fill="url(#paint14_linear_2327_788)"/>
<path d="M214.083 78.3384L213.609 83.9082H218.11L216.991 75.4062L214.083 78.3384Z" fill="url(#paint15_linear_2327_788)"/>
<path d="M219.441 83.1375C217.888 83.0518 214.416 82.8934 211.956 83.0274C210.66 83.0979 209.575 84.0272 209.31 85.297L208.711 88.1723C208.487 89.2433 208.52 90.352 208.808 91.4076L211.218 100.254C211.218 100.254 213.361 101.542 218.067 100.164C218.067 100.164 222.2 90.3089 220.508 84.0048C220.377 83.5153 219.947 83.1654 219.441 83.1375Z" fill="url(#paint16_linear_2327_788)"/>
<path d="M209.427 84.7812C208.764 86.5274 208.166 88.3584 207.522 90.0733C207.195 90.9316 206.863 91.773 206.509 92.5456C206.329 92.9304 206.132 93.284 205.951 93.6046C205.77 93.922 205.566 94.186 205.459 94.3075C205.439 94.3256 205.508 94.3393 205.532 94.3405C205.546 94.3422 205.084 94.4163 204.942 94.44L204.388 94.4368C203.594 94.3959 202.694 94.2559 201.792 94.0807C199.973 93.7415 198.081 93.2651 196.139 92.9048L196.124 92.9021C195.752 92.8332 195.395 93.0785 195.326 93.4503C195.281 93.6954 195.373 93.9348 195.547 94.0888C196.33 94.7783 197.16 95.3446 198.021 95.8959C198.455 96.1609 198.896 96.4208 199.344 96.6701C199.801 96.9031 200.26 97.138 200.736 97.3551C201.694 97.7729 202.685 98.1577 203.825 98.4047C204.125 98.4549 204.421 98.5075 204.73 98.5488C205.076 98.5609 205.39 98.5916 205.768 98.5696C205.968 98.5497 206.17 98.5252 206.371 98.4958C206.478 98.4769 206.557 98.4748 206.687 98.4391C206.825 98.3978 206.962 98.3513 207.098 98.3005C207.381 98.1988 207.564 98.0757 207.794 97.9478C207.986 97.8218 208.16 97.69 208.329 97.5549C208.952 97.0236 209.34 96.4965 209.681 95.9903C210.021 95.4845 210.291 94.9778 210.533 94.4811C211.019 93.4892 211.399 92.5063 211.706 91.5167C212.33 89.5334 212.753 87.5842 212.931 85.5137C213.017 84.522 212.282 83.6488 211.29 83.5634C210.469 83.4926 209.73 83.9838 209.451 84.7174L209.427 84.7812Z" fill="url(#paint17_linear_2327_788)"/>
<path d="M196.751 93.7945L195.948 91.8882L191.721 90.835C191.721 90.835 191.383 91.5677 193.158 91.8882C193.158 91.8882 192.524 92.5891 192.862 93.4133C193.2 94.2376 196.793 95.0633 196.751 93.7945Z" fill="url(#paint18_linear_2327_788)"/>
<path d="M212.178 71.9056C212.017 72.0004 210.751 76.4658 211.812 78.3381C212.873 80.2104 216.113 78.1133 216.991 75.406C217.869 72.6986 216.458 69.3812 212.178 71.9056Z" fill="url(#paint19_linear_2327_788)"/>
<path d="M220.572 75.4059C221.298 78.9663 223.706 77.9919 225.412 79.576C228.176 82.1434 232.13 79.4967 235.974 81.9297C238.749 83.6861 240.086 88.1796 238.754 91.8076C236.91 96.8325 230.606 98.8989 227.34 97.3685C224.218 95.9058 224.662 91.525 220.462 89.8321C218.679 89.1134 217.798 89.5803 216.73 88.515C214.861 86.6501 215.365 83.0312 215.56 81.6371C215.981 78.6119 216.996 78.0642 216.511 76.7347C215.568 74.1487 211.17 74.6823 210.803 72.8567C210.47 71.1942 213.657 68.0431 216.657 68.5398C221.298 69.308 220.248 73.8197 220.572 75.4059Z" fill="url(#paint20_linear_2327_788)"/>
<path d="M237.37 90.9572C237.425 90.9572 237.475 90.9199 237.488 90.8642C238.082 88.3973 237.813 86.3742 236.687 84.8508C234.817 82.3227 231.185 82.0726 231.148 82.0704C231.091 82.0609 231.024 82.1171 231.02 82.1843C231.016 82.2512 231.066 82.3089 231.134 82.3129C231.169 82.315 234.692 82.5595 236.492 84.9967C237.573 86.4593 237.829 88.4143 237.252 90.8071C237.236 90.8723 237.276 90.9381 237.342 90.9538C237.351 90.956 237.361 90.9572 237.37 90.9572Z" fill="#91B3FA"/>
<path d="M225.472 93.2148C225.477 93.2148 225.482 93.214 225.487 93.2129C225.52 93.2043 225.539 93.1712 225.531 93.1386C224.952 90.9178 223.936 89.3755 222.512 88.5542C221.477 87.9566 220.506 87.9011 219.651 87.852C218.825 87.8045 218.113 87.7636 217.539 87.2536C216.354 86.1991 216.422 83.6642 217.743 79.7188C217.754 79.6869 217.737 79.6526 217.705 79.6418C217.673 79.6312 217.639 79.6484 217.628 79.6803C216.29 83.676 216.233 86.2544 217.459 87.3441C218.064 87.8824 218.796 87.9246 219.644 87.9732C220.486 88.0216 221.441 88.0765 222.452 88.6595C223.846 89.4638 224.843 90.9812 225.413 93.1694C225.42 93.1967 225.445 93.2148 225.472 93.2148Z" fill="#91B3FA"/>
<path d="M218.853 74.5226C218.86 74.5226 218.866 74.5216 218.873 74.5195C218.905 74.5088 218.922 74.4741 218.911 74.4424C218.451 73.0735 217.125 73.277 215.721 73.4928C214.832 73.6296 213.913 73.7702 213.133 73.5396C212.551 73.3671 212.206 73.0999 212.106 72.745C211.935 72.141 212.533 71.4675 212.539 71.4606C212.561 71.4357 212.559 71.3973 212.534 71.375C212.509 71.3525 212.471 71.3546 212.448 71.3796C212.422 71.409 211.8 72.1088 211.989 72.7778C212.101 73.1753 212.474 73.4708 213.098 73.6559C213.904 73.8946 214.837 73.7515 215.739 73.6129C217.149 73.3964 218.368 73.2088 218.796 74.4813C218.804 74.5067 218.828 74.5226 218.853 74.5226Z" fill="#91B3FA"/>
<path d="M17.2779 103.724C16.381 104.681 15.0602 105.508 14.1309 106.024C15.5188 107.74 17.3968 109.458 19.883 111.14L20.5947 112.736L22.8746 110.004C22.8746 110.004 18.7836 107.968 17.2779 103.724Z" fill="url(#paint21_linear_2327_788)"/>
<path d="M29.4802 155.549C29.481 155.5 29.4777 155.45 29.4651 155.401C28.7267 152.473 25.0616 150.649 25.0616 150.649L23.6092 150.763C22.7741 153.344 22.8815 154.926 23.0155 155.631C23.0192 155.651 23.0252 155.67 23.0305 155.689C24.2287 155.796 26.6945 155.866 29.4802 155.549Z" fill="url(#paint22_linear_2327_788)"/>
<path d="M23.0312 155.689C23.0959 155.924 23.2697 156.108 23.4921 156.154C25.1964 156.513 27.9051 156.224 29.0423 156.076C29.2933 156.043 29.4767 155.811 29.4808 155.549C26.6953 155.866 24.2294 155.796 23.0312 155.689Z" fill="url(#paint23_linear_2327_788)"/>
<path d="M23.0254 148.601L23.6405 151.562C23.6856 151.779 23.8523 151.941 24.0543 151.96C24.3015 151.983 24.6534 151.997 25.0072 151.945C25.3245 151.898 25.5455 151.576 25.4893 151.23L25.0617 148.601H23.0254Z" fill="url(#paint24_linear_2327_788)"/>
<path d="M35.7691 155.659C34.1651 155.614 33.3355 155.425 32.9066 155.25C32.9056 155.409 32.9065 155.572 32.9118 155.74C32.9173 155.92 33.0503 156.063 33.214 156.062L42.021 156.005C42.3021 156.003 42.4663 155.677 42.3445 155.42C41.1897 155.515 38.2487 155.728 35.7691 155.659Z" fill="url(#paint25_linear_2327_788)"/>
<path d="M42.344 155.42C42.3333 155.397 42.3243 155.374 42.3092 155.353C41.5314 154.266 39.5504 152.102 35.636 151.164L33.7582 151.104C33.7582 151.104 32.922 152.558 32.9062 155.25C33.3352 155.425 34.1647 155.614 35.7688 155.659C38.2482 155.729 41.1892 155.515 42.344 155.42Z" fill="url(#paint26_linear_2327_788)"/>
<path d="M33.4102 148.259C33.431 148.399 33.6884 150.527 33.7881 151.351C33.8118 151.547 33.9537 151.699 34.1328 151.72C34.4525 151.759 34.9699 151.793 35.4227 151.701C35.6669 151.651 35.8436 151.416 35.8436 151.143V147.804L33.4102 148.259Z" fill="url(#paint27_linear_2327_788)"/>
<path d="M31.9065 109.435C31.9065 109.435 36.4358 126.647 36.3538 148.308C36.3523 148.703 36.075 149.044 35.6886 149.125C35.1191 149.245 34.282 149.387 33.589 149.368C33.219 149.358 32.9098 149.083 32.8476 148.718C32.2126 144.994 28.568 124.013 26.4915 120.607C26.4915 120.607 25.1253 139.294 25.5621 148.988C25.5729 149.229 25.3964 149.438 25.1567 149.466C24.7931 149.508 24.2114 149.54 23.4712 149.461C23.1902 149.431 22.9635 149.219 22.9234 148.939C22.471 145.787 19.8674 127.026 19.978 113.511C19.9843 112.748 21.9936 109.435 21.9936 109.435H31.9065Z" fill="url(#paint28_linear_2327_788)"/>
<path d="M38.2042 88.6026C37.4691 87.6812 36.8252 86.6935 36.2865 85.6759C35.5341 84.2545 36.2259 86.596 36.0204 84.9909C30.3865 80.9254 21.9029 82.9832 18.6213 83.3966C17.5454 83.5321 16.5612 84.0626 15.8521 84.8832C13.0401 88.1373 6.86971 97.0466 14.1325 106.024C15.0619 105.508 16.3826 104.681 17.2796 103.723C16.4761 101.458 16.4103 98.5637 18.0943 95.0143C18.1518 95.2957 18.223 95.5742 18.3094 95.8482C20.6304 103.201 20.7542 109.32 20.749 110.73C20.7482 110.922 20.8632 111.094 21.041 111.165C24.0957 112.389 29.9757 111.661 31.9495 111.367C32.3115 111.313 32.5549 110.976 32.5048 110.613C31.5361 103.595 36.5078 92.0496 37.8209 89.1579C37.9157 88.9499 38.0462 88.7626 38.2042 88.6026Z" fill="url(#paint29_linear_2327_788)"/>
<path d="M23.9012 77.4874L23.3125 83.5022C23.3125 83.5022 26.6961 84.5213 29.1572 82.7849L27.4272 77.3184L23.9012 77.4874Z" fill="url(#paint30_linear_2327_788)"/>
<path d="M27.8299 70.6321C27.9113 70.7088 31.2669 77.2982 31.2669 77.2982L27.4637 79.1342L23.3555 73.3612C23.3555 73.3612 26.4666 69.3488 27.8299 70.6321Z" fill="url(#paint31_linear_2327_788)"/>
<path d="M25.0374 73.5208C24.9695 73.6963 24.9862 73.8922 25.083 74.0536L26.9799 77.2155C27.0087 77.2635 27.0429 77.3068 27.0839 77.345C27.3097 77.5552 28.0823 78.1664 28.6795 77.3342C29.1886 76.6249 29.6662 75.9799 30.178 75.714C30.4768 75.5587 30.8447 75.6827 30.9964 75.9834C31.3089 76.6028 31.9142 77.8654 32.2945 79.0627C32.3898 79.3628 32.235 79.685 31.9431 79.8033C31.173 80.1152 29.651 80.6795 28.3004 80.8659C28.0786 80.8965 27.8589 80.8029 27.7268 80.6219C27.1457 79.826 25.508 77.6013 24.949 77.0445C24.4298 76.5272 23.4713 76.7222 23.0394 76.8463C22.8755 76.8934 22.701 76.8708 22.5549 76.7827C22.1166 76.5188 21.352 75.8616 22.0515 74.7488C22.2254 74.4722 22.1367 74.1036 21.8637 73.924C21.3744 73.6022 20.8436 72.9981 21.3493 72.02C21.8613 71.0297 22.7756 70.9409 23.3983 71.0169C23.6739 71.0506 23.9536 70.9062 24.0593 70.6496C24.1063 70.5354 24.1993 70.438 24.3724 70.4029C24.6988 70.3367 24.9129 70.0383 24.8489 69.7114C24.7391 69.151 24.8217 68.423 25.7165 67.9312C27.3575 67.0289 28.7949 68.499 29.1604 69.74C29.5258 70.981 27.6912 71.858 26.537 72.0043C25.6892 72.1119 25.2243 73.0372 25.0374 73.5208Z" fill="url(#paint32_linear_2327_788)"/>
<path d="M25.6613 78.2052C25.6613 78.2052 24.9316 76.0702 23.9976 76.1486C23.0636 76.227 22.3285 77.1574 23.486 78.2034C24.9259 79.5045 25.6613 78.2052 25.6613 78.2052Z" fill="url(#paint33_linear_2327_788)"/>
<path d="M17.7845 94.4649C16.5533 91.0957 16.9999 87.0271 17.0046 86.9863L17.3438 87.0251C17.3394 87.0651 16.9022 91.0556 18.1054 94.3476L17.7845 94.4649Z" fill="url(#paint34_linear_2327_788)"/>
<path d="M26.3263 120.168C26.2504 120.168 26.1811 120.117 26.1612 120.04C25.7856 118.592 22.9731 117 22.9447 116.984C22.8625 116.938 22.8331 116.834 22.8794 116.751C22.9256 116.669 23.0291 116.64 23.1119 116.686C23.2327 116.754 26.0798 118.365 26.4918 119.955C26.5154 120.046 26.4606 120.139 26.3694 120.163C26.355 120.167 26.3406 120.168 26.3263 120.168Z" fill="url(#paint35_linear_2327_788)"/>
<path d="M49.6411 90.4949C43.2691 91.4509 39.116 87.4304 36.0213 84.9915C31.9354 81.7715 28.7559 83.338 28.7559 83.338L33.1133 91.6541C39.6204 97.7894 46.2923 96.4269 50.4984 94.4388C50.563 92.8326 50.1338 91.4883 49.6411 90.4949Z" fill="url(#paint36_linear_2327_788)"/>
<path d="M58.5964 86.6934L56.4833 87.8304C53.9491 89.3734 51.6814 90.1887 49.6406 90.4949C50.1333 91.4884 50.5626 92.8326 50.4978 94.4388C53.1753 93.1733 54.854 91.6541 54.854 91.6541C59.6408 88.7999 58.5964 86.6934 58.5964 86.6934Z" fill="url(#paint37_linear_2327_788)"/>
<path d="M64.8191 89.6709C64.6827 89.2174 64.3474 88.8505 63.9079 88.6738L59.6196 86.9492C59.6196 86.9492 59.5548 86.3992 60.5257 86.0255C61.4965 85.6518 61.2696 84.5645 61.2696 84.5645C61.2696 84.5645 59.9433 85.1695 58.0014 86.1291C56.891 86.6779 56.2679 87.6468 55.9375 88.3762L57.0414 89.828C59.6845 90.6221 62.359 90.7739 65.0563 90.4589L64.8191 89.6709Z" fill="url(#paint38_linear_2327_788)"/>
<path d="M28.5138 70.4735C28.5067 70.4735 28.4996 70.4727 28.4925 70.4711C28.4413 70.4593 28.4093 70.4083 28.4208 70.3571C28.433 70.3037 28.7006 69.0431 27.2685 68.3869C27.2206 68.3651 27.1996 68.3086 27.2216 68.2607C27.2436 68.2129 27.3002 68.1917 27.3478 68.2139C28.9242 68.9361 28.6099 70.3852 28.6065 70.3999C28.5963 70.4438 28.5571 70.4735 28.5138 70.4735Z" fill="#91B3FA"/>
<path fill-rule="evenodd" clip-rule="evenodd" d="M45.1174 141.889C44.829 141.63 44.373 141.249 43.9506 141.021C43.843 140.963 43.7104 140.991 43.6356 141.088C43.1965 141.656 41.7306 143.625 41.4032 144.98C41.376 145.092 41.4334 145.207 41.5359 145.26C41.9137 145.457 42.9106 145.67 44.3317 143.693L45.1857 142.486C45.3186 142.299 45.2885 142.042 45.1174 141.889Z" fill="url(#paint39_linear_2327_788)"/>
<path fill-rule="evenodd" clip-rule="evenodd" d="M53.7839 137.469C53.7839 137.469 53.3063 143.916 50.6795 146.066C48.3796 147.947 44.7984 144.52 43.9426 143.638C43.8178 143.51 43.7578 143.327 43.7933 143.152C43.8791 142.728 44.0848 142.399 44.4459 142.192C44.6998 142.046 45.0194 142.08 45.2343 142.278C45.9475 142.938 47.8154 144.537 48.7691 144.155C49.9631 143.678 50.6795 137.469 50.6795 137.469L53.7839 137.469Z" fill="url(#paint40_linear_2327_788)"/>
<path fill-rule="evenodd" clip-rule="evenodd" d="M47.5754 117.887C47.5754 117.887 43.9934 116.215 42.0254 107.052L43.0048 106.55C43.0048 106.55 46.8072 114.032 48.7694 115.737C50.7317 117.442 47.5754 117.887 47.5754 117.887Z" fill="url(#paint41_linear_2327_788)"/>
<path fill-rule="evenodd" clip-rule="evenodd" d="M42.7836 107.653L42.0257 107.052C42.0257 107.052 40.9918 106.048 40.6289 105.196C40.2659 104.343 41.3314 103.574 41.7332 103.393C42.1351 103.212 42.3554 103.593 42.2754 104.451C42.2754 104.451 43.1909 105.515 43.0591 107.067L42.7836 107.653Z" fill="url(#paint42_linear_2327_788)"/>
<path fill-rule="evenodd" clip-rule="evenodd" d="M63.5848 117.885C63.5848 117.885 67.6349 111.575 68.3664 106.335L67.387 105.833C67.387 105.833 63.3366 114.315 61.3744 116.02C59.4122 117.725 63.5848 117.885 63.5848 117.885Z" fill="url(#paint43_linear_2327_788)"/>
<path fill-rule="evenodd" clip-rule="evenodd" d="M67.6088 106.936L68.3667 106.335C68.3667 106.335 69.4006 105.332 69.7635 104.479C70.1264 103.626 69.061 102.857 68.6592 102.676C68.2573 102.495 68.037 102.876 68.117 103.734C68.117 103.734 67.2015 104.798 67.3333 106.35L67.6088 106.936Z" fill="url(#paint44_linear_2327_788)"/>
<path fill-rule="evenodd" clip-rule="evenodd" d="M55.0296 154.052C55.0296 154.052 54.7451 155.108 54.7646 155.889C54.7678 156.011 54.8587 156.113 54.9802 156.13C55.6933 156.228 58.128 156.52 59.4655 156.131C59.5732 156.099 59.6469 155.999 59.6437 155.887C59.6315 155.467 59.3359 154.482 56.8929 154.23L55.0296 154.052Z" fill="url(#paint45_linear_2327_788)"/>
<path fill-rule="evenodd" clip-rule="evenodd" d="M59.2328 137.892C59.5335 138.088 57.2653 154.016 56.7158 154.131C56.7158 154.131 56.0872 154.715 55.1172 154.05C55.6772 148.859 56.0181 143.593 55.7166 138.212L59.2328 137.892Z" fill="url(#paint46_linear_2327_788)"/>
<path fill-rule="evenodd" clip-rule="evenodd" d="M51.2789 128.225C51.2789 128.225 58.6758 128.563 60.4376 129.181C60.4376 129.181 60.2205 135.195 59.4974 138.891C59.4693 139.034 59.3609 139.148 59.2187 139.181C58.744 139.291 57.5492 139.448 55.6555 138.918C55.4871 138.871 55.3752 138.711 55.3871 138.537L55.5826 136.141C55.5937 135.98 55.4721 135.841 55.3114 135.83L55.1133 135.8C54.9457 135.788 54.803 135.92 54.8015 136.089L54.4276 138.518C54.4262 138.675 54.3258 138.814 54.1768 138.865C53.6208 139.053 52.1739 139.405 50.2659 138.823C50.1121 138.776 50.0055 138.635 50.0044 138.474C49.9851 135.525 50.5146 131.998 51.2789 128.225Z" fill="#7D97F4"/>
<path fill-rule="evenodd" clip-rule="evenodd" d="M54.0526 128.743C54.0526 128.743 53.1176 131.342 50.8613 131.522L51.3602 128.558C51.3602 128.558 53.1077 128.545 54.0526 128.743Z" fill="#91B3FA"/>
<path fill-rule="evenodd" clip-rule="evenodd" d="M61.0785 109.587C61.0785 109.587 60.7937 108.784 61.5194 108.641C62.2449 108.498 61.5527 110.63 61.5527 110.63L61.0785 109.587Z" fill="url(#paint47_linear_2327_788)"/>
<path fill-rule="evenodd" clip-rule="evenodd" d="M47.8127 114.543C47.8127 114.543 51.156 116.693 55.2156 116.454C58.6012 116.255 60.6582 115.391 61.8019 114.417C62.2109 114.069 62.7924 114.012 63.2443 114.303C63.7385 114.621 64.3966 115.116 65.0881 115.838C65.2618 116.019 65.2971 116.297 65.1648 116.511C64.1786 118.104 63.1271 119.218 62.0123 119.865C61.6349 120.281 61.4325 120.827 61.4473 121.388L61.6533 129.214C61.659 129.431 61.5083 129.62 61.295 129.66C59.811 129.942 54.1791 130.922 50.6782 130.304V121.864C50.6782 121.236 50.3312 120.666 49.7826 120.361C49.0474 119.953 47.9524 119.153 46.8574 117.648L47.8127 114.543Z" fill="url(#paint48_linear_2327_788)"/>
<path fill-rule="evenodd" clip-rule="evenodd" d="M53.6111 112.738L53.2441 116.768C53.2441 116.768 55.3708 118.01 57.2004 116.924L56.8754 113.405L53.6111 112.738Z" fill="url(#paint49_linear_2327_788)"/>
<path fill-rule="evenodd" clip-rule="evenodd" d="M61.4646 109.874C61.4646 109.874 62.3966 108.278 61.2095 107.439C61.2095 107.439 61.8463 106.034 60.6418 105.018C60.6418 105.018 58.7237 100.529 54.6971 103.678C54.6971 103.678 51.2301 102.647 50.1148 106.959C50.1148 106.959 48.9619 107.606 49.49 109.216C49.49 109.216 49.3605 115.192 54.5939 113.177L61.4646 109.874Z" fill="url(#paint50_linear_2327_788)"/>
<path fill-rule="evenodd" clip-rule="evenodd" d="M59.7432 106.536C59.7432 106.536 64.1794 113.221 59.5959 115.268C55.27 117.201 53.4472 112.762 53.4472 112.762C53.4472 112.762 51.545 110.791 52.1839 109.274C52.823 107.756 58.6619 105.705 59.7432 106.536Z" fill="url(#paint51_linear_2327_788)"/>
<path fill-rule="evenodd" clip-rule="evenodd" d="M53.0143 111.709C53.0143 111.709 57.3562 110.335 56.9849 107.77C56.9849 107.77 57.7371 107.845 57.9678 106.96C57.9678 106.96 60.0985 108.876 60.6601 107.536C60.6601 107.536 60.2871 104.217 57.6839 105.293C55.0808 106.368 52.7031 107.462 52.0063 108.228C51.3093 108.993 50.7309 110.846 53.0143 111.709Z" fill="url(#paint52_linear_2327_788)"/>
<path fill-rule="evenodd" clip-rule="evenodd" d="M54.0167 113.359L53.2454 111.239C53.2454 111.239 51.7551 110.554 51.9514 111.708C52.1476 112.861 53.4869 113.498 54.0167 113.359Z" fill="url(#paint53_linear_2327_788)"/>
<path d="M60.6589 106.886C60.6063 106.886 60.5637 106.843 60.5637 106.791C60.5637 106.654 60.5759 106.524 60.5877 106.398C60.6404 105.834 60.6821 105.389 59.5653 104.87C59.5445 104.86 59.5279 104.844 59.5185 104.823C58.699 102.978 56.9593 103.42 56.8855 103.44C56.8347 103.453 56.7826 103.423 56.7689 103.373C56.7553 103.322 56.7851 103.27 56.836 103.256C56.8552 103.251 58.7846 102.755 59.6778 104.713C60.8835 105.283 60.8318 105.833 60.7773 106.415C60.7659 106.537 60.7541 106.663 60.7541 106.791C60.7541 106.843 60.7115 106.886 60.6589 106.886Z" fill="#91B3FA"/>
<path d="M185.096 114.468C185.096 114.468 188.315 123.141 193.211 122.077C193.211 122.077 193.716 125.028 192.892 125.376C192.892 125.376 185.548 125.589 184.818 115.503L185.096 114.468Z" fill="url(#paint54_linear_2327_788)"/>
<path d="M185.237 116.499C185.223 116.65 185.782 116.754 185.96 116.113C185.911 115.834 185.824 114.616 185.611 114.427C184.475 113.418 182.448 112.284 182.448 112.284C182.222 112.63 182.519 112.858 182.519 112.858L183.53 113.541C183.425 113.89 183.271 114.199 183.253 114.598C183.24 114.9 183.352 115.196 183.553 115.425C183.754 115.655 184.025 115.952 184.269 116.177C184.732 116.604 185.237 116.499 185.237 116.499Z" fill="url(#paint55_linear_2327_788)"/>
<path d="M184.647 116.018C184.45 115.54 184.103 114.77 183.949 114.609C183.815 114.47 183.755 114.341 183.762 114.214C183.769 114.106 183.826 114.008 183.931 113.922L183.997 113.869L184.991 114.401L185.382 115.013L185.168 115.15L184.813 114.593L184.035 114.178C184.017 114.204 184.016 114.222 184.016 114.23C184.013 114.28 184.054 114.352 184.132 114.434C184.368 114.681 184.83 115.796 184.882 115.923L184.647 116.018Z" fill="url(#paint56_linear_2327_788)"/>
<path fill-rule="evenodd" clip-rule="evenodd" d="M193.167 110.843C193.167 110.843 194.722 109.439 192.723 107.917C190.845 106.487 189.473 108.406 190.095 109.641C190.139 109.728 190.089 109.834 189.993 109.855C189.829 109.891 189.688 110.055 189.946 110.631C189.969 110.681 189.961 110.739 189.929 110.783C189.699 111.091 188.931 112.328 191.247 112.517C191.288 112.521 191.33 112.507 191.361 112.479L193.167 110.843Z" fill="url(#paint57_linear_2327_788)"/>
<path fill-rule="evenodd" clip-rule="evenodd" d="M201.33 112.904C201.33 112.904 201.479 111.112 202.438 110.528C203.397 109.944 205.258 109.447 206.038 111.395C206.41 112.324 206.287 112.767 206.057 112.975C205.846 113.165 205.823 113.46 205.962 113.708C206.12 113.99 206.141 114.339 205.665 114.655C205.524 114.749 205.43 114.886 205.4 115.042C205.275 115.692 204.611 117.25 201.059 115.546L201.33 112.904Z" fill="url(#paint58_linear_2327_788)"/>
<path fill-rule="evenodd" clip-rule="evenodd" d="M197.222 109.683C197.921 109.383 199.402 109.078 200.554 111.092C200.634 111.233 200.75 111.349 200.892 111.427C201.578 111.806 203.565 113.181 201.756 115.663C201.673 115.776 201.619 115.908 201.599 116.047C201.538 116.468 201.338 117.399 200.737 117.629C200.557 117.698 200.406 117.824 200.306 117.989C199.901 118.654 198.749 120.054 196.809 118.592C196.71 118.518 196.596 118.465 196.476 118.438L193.797 117.848C193.654 117.817 193.507 117.823 193.367 117.863C193.039 117.959 192.377 118.043 192.131 117.273C192.081 117.116 191.988 116.976 191.862 116.869C191.413 116.488 190.46 115.452 191.181 114.001C191.262 113.838 191.292 113.656 191.264 113.476C191.179 112.933 191.135 111.726 192.263 111.205C192.432 111.127 192.574 110.999 192.66 110.833C193.036 110.109 194.262 108.254 196.423 109.614C196.663 109.766 196.961 109.794 197.222 109.683Z" fill="url(#paint59_linear_2327_788)"/>
<path fill-rule="evenodd" clip-rule="evenodd" d="M193.587 152.25L193.977 152.701L193.709 153.679C193.639 153.935 193.428 154.128 193.167 154.176C192.296 154.336 190.322 154.624 189.306 154.187C189.306 154.187 188.99 152.07 192.49 152.701L193.587 152.25Z" fill="url(#paint60_linear_2327_788)"/>
<path fill-rule="evenodd" clip-rule="evenodd" d="M199.691 153.374L199.899 153.884L199.815 155.718C199.803 155.976 199.595 156.192 199.314 156.235C198.932 156.294 198.375 156.354 197.852 156.314C197.442 156.282 197.185 155.897 197.345 155.553L197.963 154.23C198.055 154.032 198.224 153.88 198.43 153.809L199.691 153.374Z" fill="url(#paint61_linear_2327_788)"/>
<path fill-rule="evenodd" clip-rule="evenodd" d="M197.914 117.613L198.312 121.559C198.312 121.559 196.167 122.287 194.754 121.466L195.136 117.503L197.914 117.613Z" fill="url(#paint62_linear_2327_788)"/>
<path fill-rule="evenodd" clip-rule="evenodd" d="M201.353 139.221C201.353 139.221 200.335 150.575 199.662 154.048C199.662 154.048 199.159 154.415 198.406 153.942L197.492 138.791L201.353 139.221Z" fill="url(#paint63_linear_2327_788)"/>
<path fill-rule="evenodd" clip-rule="evenodd" d="M196.828 139.903L194.038 152.617C194.038 152.617 193.279 153.404 192.293 152.617L192.774 139.251L196.828 139.903Z" fill="url(#paint64_linear_2327_788)"/>
<path fill-rule="evenodd" clip-rule="evenodd" d="M200.358 121.856L201.056 121.934C202.407 123.383 204.886 133.341 205.78 135.458L209.419 134.864C209.561 134.835 209.678 134.976 209.623 135.111C209.461 135.506 208.855 136.645 206.494 136.645C205.39 136.645 207.112 137.501 206.453 137.795C206.453 137.795 205.003 137.273 205 136.355C205 136.355 200.843 126.886 199.989 125.89C199.134 124.893 200.358 121.856 200.358 121.856Z" fill="url(#paint65_linear_2327_788)"/>
<path fill-rule="evenodd" clip-rule="evenodd" d="M201.057 121.935C201.057 121.935 197.359 120.565 192.743 121.983C192.743 121.983 192.226 125.477 192.492 127.141L200.446 127.429L201.057 121.935Z" fill="url(#paint66_linear_2327_788)"/>
<path fill-rule="evenodd" clip-rule="evenodd" d="M192.602 128.233C192.602 128.233 190.06 136.393 189.683 141.83C189.663 142.11 189.874 142.351 190.154 142.371C190.683 142.409 191.616 142.539 192.883 142.961C194.938 143.646 196.64 143.42 198.176 142.979C199.382 142.633 202.398 142.33 203.64 142.215C203.935 142.188 204.144 141.914 204.092 141.622C203.731 139.61 202.36 132.47 200.279 127.616L192.602 128.233Z" fill="url(#paint67_linear_2327_788)"/>
<path fill-rule="evenodd" clip-rule="evenodd" d="M192.465 126.952L192.6 128.233C192.6 128.233 195.045 128.242 200.449 128.06L200.477 127.134C200.477 127.134 194.491 127.251 192.465 126.952Z" fill="url(#paint68_linear_2327_788)"/>
<path fill-rule="evenodd" clip-rule="evenodd" d="M192.481 113.786C191.867 116.159 192.046 118.887 194.838 119.498C196.77 119.922 198.8 117.954 199.414 115.58C200.028 113.207 198.977 111.4 197.062 110.905C195.148 110.409 193.095 111.413 192.481 113.786Z" fill="url(#paint69_linear_2327_788)"/>
<path fill-rule="evenodd" clip-rule="evenodd" d="M192.694 114.519C192.694 114.519 192.602 113.084 191.887 113.526C191.171 113.969 192.163 115.688 192.605 115.789C193.048 115.89 192.694 114.519 192.694 114.519Z" fill="url(#paint70_linear_2327_788)"/>
<path fill-rule="evenodd" clip-rule="evenodd" d="M198.816 116.173C198.816 116.173 199.03 115.079 199.805 115.585C200.581 116.091 199.101 117.879 198.189 117.481L198.816 116.173Z" fill="url(#paint71_linear_2327_788)"/>
<path fill-rule="evenodd" clip-rule="evenodd" d="M199.962 115.303C199.962 115.303 197.742 117.707 196.588 112.719C196.588 112.719 195.437 114.209 194.912 112.891C194.912 112.891 192.62 113.676 192.367 112.712C192.114 111.749 195.465 109.135 198.16 111.011C200.855 112.886 199.962 115.303 199.962 115.303Z" fill="url(#paint72_linear_2327_788)"/>
<path d="M191.681 112.747C191.676 112.747 191.67 112.746 191.664 112.745C191.612 112.736 191.578 112.686 191.587 112.635C191.716 111.928 191.932 111.76 192.573 111.262C192.69 111.171 192.823 111.068 192.973 110.948C193.179 110.054 194.472 109.876 194.528 109.869C194.579 109.862 194.627 109.899 194.634 109.951C194.641 110.003 194.604 110.051 194.552 110.058C194.54 110.059 193.306 110.23 193.152 111.02C193.148 111.041 193.136 111.061 193.118 111.075C192.957 111.205 192.815 111.316 192.69 111.413C192.06 111.902 191.89 112.034 191.775 112.669C191.767 112.715 191.727 112.747 191.681 112.747Z" fill="url(#paint73_linear_2327_788)"/>
<path d="M82.4381 69.5818C82.2866 69.5818 82.1434 69.4908 82.084 69.3415C81.9305 68.9554 81.7665 68.5668 81.5967 68.1867C81.5109 67.9947 81.597 67.7693 81.7891 67.6836C81.9816 67.5977 82.2066 67.6841 82.2922 67.876C82.4664 68.2657 82.6344 68.664 82.7919 69.06C82.8696 69.2554 82.7742 69.4769 82.5786 69.5547C82.5326 69.5731 82.4849 69.5818 82.4381 69.5818ZM81.4032 67.2649C81.2633 67.2649 81.1286 67.1874 81.062 67.0536C80.8769 66.6818 80.6813 66.3086 80.4805 65.9441C80.3791 65.7599 80.4461 65.5282 80.6304 65.4267C80.8146 65.3252 81.0461 65.3925 81.1478 65.5766C81.3535 65.9502 81.5541 66.3328 81.7439 66.714C81.8376 66.9024 81.7609 67.131 81.5727 67.2247C81.5182 67.252 81.4602 67.2649 81.4032 67.2649ZM80.1794 65.0435C80.0506 65.0435 79.9249 64.9782 79.8533 64.8601C79.638 64.5049 79.4119 64.149 79.1818 63.8025C79.0654 63.6272 79.1131 63.3909 79.2883 63.2744C79.4635 63.1581 79.6998 63.2057 79.8164 63.381C80.0523 63.7362 80.2839 64.101 80.5047 64.4651C80.6138 64.645 80.5565 64.8792 80.3766 64.9882C80.3148 65.0257 80.2467 65.0435 80.1794 65.0435ZM78.7762 62.9303C78.6582 62.9303 78.5419 62.8757 78.4674 62.7728C78.2244 62.4373 77.9703 62.1008 77.7119 61.7726C77.5819 61.6074 77.6104 61.3678 77.7756 61.2377C77.9407 61.1076 78.1803 61.1361 78.3105 61.3014C78.5751 61.6375 78.8355 61.9822 79.0844 62.3259C79.2078 62.4962 79.1697 62.7342 78.9993 62.8577C78.9318 62.9068 78.8535 62.9303 78.7762 62.9303ZM77.2071 60.9365C77.0995 60.9365 76.9926 60.8912 76.9171 60.8027C76.648 60.487 76.368 60.1712 76.0851 59.8639C75.9426 59.7092 75.9526 59.4681 76.1072 59.3257C76.2618 59.1833 76.5029 59.193 76.6455 59.3479C76.9349 59.6624 77.2214 59.9854 77.4969 60.3086C77.6333 60.4687 77.6142 60.709 77.4542 60.8455C77.3823 60.9067 77.2945 60.9365 77.2071 60.9365ZM75.4883 59.0693C75.3904 59.0693 75.2923 59.0317 75.2179 58.9566C74.9261 58.6625 74.6234 58.368 74.3178 58.0813C74.1644 57.9374 74.1567 57.6963 74.3007 57.5429C74.4444 57.3894 74.6854 57.3816 74.8391 57.5258C75.1512 57.8187 75.4607 58.1198 75.7587 58.4203C75.9069 58.5695 75.9059 58.8107 75.7565 58.9589C75.6822 59.0326 75.5853 59.0693 75.4883 59.0693ZM73.6374 57.3324C73.5484 57.3324 73.4591 57.3014 73.3869 57.2382C73.0742 56.9648 72.7512 56.6917 72.4269 56.4269C72.2641 56.2939 72.2399 56.0539 72.373 55.891C72.5059 55.728 72.7457 55.7039 72.909 55.837C73.2397 56.1074 73.5692 56.3857 73.8883 56.6648C74.0467 56.8032 74.0628 57.0439 73.9244 57.2023C73.849 57.2883 73.7434 57.3324 73.6374 57.3324ZM71.6715 55.7261C71.5907 55.7261 71.5095 55.7005 71.4405 55.6478C71.1108 55.396 70.7706 55.1443 70.4291 54.9C70.2581 54.7776 70.2185 54.5396 70.341 54.3686C70.4634 54.1977 70.7009 54.1579 70.8724 54.2805C71.2204 54.5295 71.5671 54.7858 71.903 55.0425C72.0702 55.1702 72.1021 55.4092 71.9744 55.5764C71.8993 55.6744 71.786 55.7261 71.6715 55.7261ZM69.6064 54.2479C69.5334 54.2479 69.4597 54.2269 69.3945 54.1833C69.0517 53.9532 68.6966 53.7225 68.339 53.4974C68.161 53.3853 68.1074 53.1501 68.2195 52.972C68.3316 52.7942 68.5667 52.7407 68.7448 52.8527C69.1087 53.0818 69.4702 53.3167 69.8191 53.5508C69.9937 53.6681 70.0403 53.9047 69.9231 54.0794C69.8495 54.1888 69.7292 54.2479 69.6064 54.2479ZM67.4569 52.8943C67.391 52.8943 67.3244 52.8774 67.2635 52.8414C66.9065 52.6304 66.5386 52.4197 66.1704 52.2152C65.9864 52.113 65.9202 51.8812 66.0222 51.6974C66.1244 51.5135 66.3561 51.4471 66.5401 51.5492C66.9144 51.757 67.2881 51.9712 67.651 52.1856C67.8322 52.2926 67.8922 52.5262 67.7852 52.7074C67.7141 52.8276 67.5872 52.8943 67.4569 52.8943ZM65.2362 51.6611C65.1769 51.6611 65.1167 51.647 65.0605 51.6177C64.6849 51.4217 64.3096 51.2321 63.9354 51.0486C63.7466 50.9561 63.6684 50.7278 63.761 50.539C63.8535 50.3501 64.0817 50.2716 64.2706 50.3646C64.6506 50.5508 65.0316 50.7435 65.4129 50.9424C65.5995 51.0398 65.6717 51.2696 65.5743 51.4562C65.5062 51.5865 65.3735 51.6611 65.2362 51.6611ZM62.955 50.5425C62.9018 50.5425 62.8476 50.5312 62.7958 50.5074C62.4098 50.3294 62.0256 50.1581 61.6437 49.9931C61.4507 49.9096 61.3618 49.6854 61.4453 49.4924C61.5287 49.2994 61.7527 49.2102 61.946 49.2939C62.3333 49.4614 62.7233 49.6352 63.1147 49.8156C63.3058 49.9037 63.3892 50.1299 63.3012 50.321C63.237 50.4603 63.0991 50.5425 62.955 50.5425ZM60.6228 49.5332C60.5752 49.5332 60.5267 49.5242 60.4798 49.5052C60.0843 49.345 59.6923 49.1912 59.3045 49.0436C59.1079 48.9688 59.0092 48.7489 59.084 48.5523C59.1585 48.3558 59.3777 48.2566 59.5753 48.3317C59.9681 48.481 60.3653 48.6368 60.766 48.7992C60.9609 48.8782 61.0549 49.1002 60.9759 49.2953C60.9159 49.4433 60.7733 49.5332 60.6228 49.5332ZM58.2468 48.6298C58.2044 48.6298 58.1614 48.6226 58.1192 48.6076C57.7148 48.4639 57.3164 48.3271 56.9246 48.1969C56.725 48.1307 56.6169 47.9151 56.6832 47.7155C56.7495 47.5158 56.9656 47.4079 57.1646 47.4741C57.5614 47.6057 57.965 47.7443 58.3743 47.89C58.5725 47.9604 58.676 48.1782 58.6055 48.3764C58.5502 48.5325 58.4033 48.6298 58.2468 48.6298ZM55.834 47.8283C55.7967 47.8283 55.7589 47.8228 55.7212 47.8113C55.3078 47.6833 54.9035 47.5632 54.51 47.4504C54.3079 47.3924 54.1909 47.1815 54.249 46.9793C54.307 46.7771 54.5175 46.6603 54.7202 46.7182C55.1186 46.8326 55.5278 46.9542 55.9465 47.0837C56.1474 47.146 56.2599 47.3592 56.1978 47.5602C56.1471 47.7233 55.9965 47.8283 55.834 47.8283ZM53.389 47.1274C53.3567 47.1274 53.3238 47.1231 53.2911 47.1146C52.8661 47.0019 52.457 46.8987 52.0657 46.8037C51.8612 46.7542 51.7358 46.5482 51.7853 46.3438C51.8348 46.1395 52.0408 46.0142 52.2453 46.0633C52.6416 46.1594 53.0559 46.2642 53.4863 46.3781C53.6897 46.432 53.8108 46.6406 53.757 46.8439C53.7117 47.0145 53.5575 47.1274 53.389 47.1274ZM50.9157 46.5278C50.8885 46.5278 50.8611 46.5249 50.8335 46.5188C50.3866 46.4206 49.9725 46.3352 49.5953 46.2613C49.3889 46.2208 49.2542 46.0207 49.2946 45.8143C49.3349 45.6079 49.5341 45.4731 49.7416 45.5137C50.1241 45.5886 50.544 45.6752 50.9971 45.7749C51.2025 45.82 51.3325 46.0232 51.2872 46.2287C51.2482 46.4064 51.0907 46.5278 50.9157 46.5278ZM48.415 46.0393C48.394 46.0393 48.3727 46.0376 48.3512 46.034C47.5621 45.9009 47.1092 45.848 47.1047 45.8475C46.8957 45.8231 46.7459 45.6342 46.7702 45.4253C46.7942 45.2163 46.983 45.0655 47.1922 45.0906C47.2111 45.0929 47.6668 45.1461 48.4779 45.2828C48.6853 45.3178 48.825 45.5143 48.79 45.7217C48.7587 45.9078 48.5975 46.0393 48.415 46.0393Z" fill="white"/>
<path d="M114.217 66.8743C114.012 66.8743 113.842 66.7107 113.836 66.5042C113.824 66.0837 113.806 65.6613 113.781 65.2482C113.769 65.0382 113.929 64.8579 114.139 64.8453C114.345 64.8334 114.529 64.9928 114.542 65.2029C114.567 65.6236 114.586 66.0543 114.598 66.4827C114.604 66.693 114.438 66.8682 114.228 66.8742C114.224 66.8743 114.221 66.8743 114.217 66.8743ZM114.065 64.3413C113.87 64.3413 113.704 64.193 113.686 63.9954C113.648 63.5793 113.602 63.1594 113.55 62.747C113.523 62.5383 113.671 62.3478 113.88 62.3215C114.089 62.2949 114.279 62.443 114.306 62.6518C114.359 63.0723 114.405 63.5009 114.445 63.9255C114.464 64.1349 114.31 64.3204 114.1 64.3397C114.088 64.3407 114.077 64.3413 114.065 64.3413ZM113.747 61.8245C113.564 61.8245 113.402 61.6912 113.372 61.504C113.306 61.0916 113.231 60.6757 113.151 60.268C113.111 60.0616 113.245 59.8614 113.452 59.8209C113.658 59.7796 113.858 59.9149 113.899 60.1213C113.981 60.5376 114.056 60.9622 114.124 61.3833C114.157 61.591 114.016 61.7864 113.808 61.8197C113.788 61.823 113.767 61.8245 113.747 61.8245ZM113.258 59.3351C113.085 59.3351 112.929 59.2164 112.888 59.0406C112.792 58.6331 112.689 58.2236 112.581 57.8237C112.526 57.6207 112.646 57.4115 112.848 57.3564C113.052 57.3015 113.261 57.4212 113.316 57.6242C113.427 58.033 113.532 58.4512 113.63 58.8677C113.677 59.0724 113.55 59.2773 113.345 59.3252C113.316 59.3317 113.287 59.3351 113.258 59.3351ZM112.594 56.8864C112.431 56.8864 112.281 56.7816 112.23 56.6183C112.106 56.2191 111.973 55.8182 111.836 55.427C111.766 55.2285 111.871 55.0111 112.069 54.9414C112.268 54.872 112.485 54.976 112.555 55.1746C112.695 55.5746 112.831 55.9844 112.958 56.3926C113.02 56.5934 112.908 56.8068 112.707 56.8693C112.669 56.8808 112.631 56.8864 112.594 56.8864ZM111.753 54.4924C111.601 54.4924 111.458 54.4007 111.399 54.2507C111.247 53.863 111.085 53.4729 110.918 53.0912C110.834 52.8984 110.923 52.674 111.115 52.5898C111.309 52.506 111.532 52.5941 111.617 52.7867C111.787 53.177 111.952 53.5758 112.108 53.9722C112.185 54.168 112.088 54.3891 111.892 54.4659C111.847 54.484 111.8 54.4924 111.753 54.4924ZM110.739 52.166C110.597 52.166 110.461 52.0864 110.396 51.9499C110.216 51.5755 110.026 51.1983 109.831 50.8287C109.733 50.6427 109.805 50.4123 109.991 50.3144C110.177 50.216 110.407 50.2878 110.505 50.474C110.704 50.8517 110.898 51.2374 111.082 51.6202C111.173 51.8098 111.093 52.0373 110.904 52.1283C110.851 52.154 110.794 52.166 110.739 52.166ZM109.557 49.9205C109.425 49.9205 109.296 49.8518 109.226 49.7291C109.02 49.3693 108.803 49.0067 108.581 48.6517C108.47 48.4733 108.524 48.2383 108.703 48.127C108.881 48.016 109.116 48.0704 109.228 48.2487C109.454 48.6117 109.676 48.9821 109.887 49.3499C109.992 49.5323 109.928 49.7652 109.746 49.8698C109.686 49.9041 109.621 49.9205 109.557 49.9205ZM108.214 47.766C108.092 47.766 107.971 47.7072 107.898 47.5983C107.665 47.253 107.422 46.907 107.177 46.5696C107.053 46.3996 107.09 46.1614 107.261 46.0374C107.431 45.9139 107.669 45.9512 107.793 46.1212C108.044 46.4658 108.291 46.8194 108.529 47.172C108.647 47.3465 108.601 47.5831 108.427 47.7008C108.361 47.7449 108.287 47.766 108.214 47.766ZM106.719 45.7131C106.606 45.7131 106.494 45.663 106.419 45.567C106.163 45.2394 105.896 44.9112 105.627 44.5915C105.491 44.4305 105.512 44.1903 105.673 44.0548C105.834 43.9193 106.074 43.9403 106.21 44.1009C106.484 44.4273 106.757 44.7627 107.019 45.0972C107.149 45.2628 107.119 45.5021 106.954 45.6319C106.884 45.6867 106.801 45.7131 106.719 45.7131ZM105.084 43.7697C104.98 43.7697 104.876 43.7273 104.801 43.6438C104.523 43.3359 104.234 43.0268 103.943 42.7254C103.797 42.5741 103.801 42.333 103.952 42.1868C104.103 42.0405 104.344 42.0446 104.49 42.1957C104.788 42.5035 105.083 42.8191 105.367 43.1337C105.508 43.2898 105.495 43.5307 105.339 43.6716C105.266 43.7374 105.175 43.7697 105.084 43.7697ZM103.318 41.9432C103.223 41.9432 103.127 41.9077 103.053 41.8362C102.753 41.5458 102.444 41.257 102.134 40.9778C101.978 40.8368 101.966 40.596 102.106 40.4398C102.247 40.2837 102.488 40.2712 102.644 40.4122C102.96 40.6972 103.276 40.9921 103.583 41.2885C103.734 41.4347 103.738 41.6758 103.592 41.8271C103.517 41.9043 103.418 41.9432 103.318 41.9432ZM101.431 40.2405C101.344 40.2405 101.257 40.2111 101.186 40.1508C100.866 39.8818 100.538 39.6148 100.209 39.3573C100.044 39.2275 100.015 38.9881 100.145 38.8225C100.275 38.6572 100.514 38.6283 100.68 38.758C101.015 39.0208 101.35 39.2934 101.676 39.5682C101.837 39.7038 101.858 39.9441 101.722 40.1049C101.647 40.1943 101.539 40.2405 101.431 40.2405ZM99.4298 38.6715C99.352 38.6715 99.2737 38.6478 99.206 38.5985C98.8641 38.3497 98.5175 38.1071 98.1754 37.8775C98.0007 37.7603 97.9542 37.5237 98.0714 37.349C98.1886 37.1745 98.4249 37.1279 98.5999 37.2449C98.9499 37.4799 99.3046 37.7281 99.6542 37.9825C99.8243 38.1063 99.8617 38.3446 99.738 38.5147C99.6634 38.6171 99.5474 38.6715 99.4298 38.6715ZM97.3155 37.2554C97.2479 37.2554 97.1796 37.2375 97.1178 37.1998C96.4437 36.7892 96.0389 36.5861 96.035 36.5842C95.8469 36.4902 95.7704 36.2615 95.8644 36.0732C95.9582 35.8854 96.1869 35.8084 96.3751 35.9024C96.3925 35.9111 96.8094 36.1199 97.5141 36.5492C97.6938 36.6586 97.7506 36.893 97.6413 37.0726C97.5694 37.1905 97.444 37.2554 97.3155 37.2554Z" fill="white"/>
<path d="M167.561 69.5817C167.514 69.5817 167.466 69.573 167.42 69.5547C167.224 69.477 167.129 69.2553 167.207 69.06C167.364 68.664 167.532 68.2658 167.706 67.876C167.792 67.684 168.017 67.5976 168.21 67.6836C168.402 67.7694 168.488 67.9947 168.402 68.1867C168.232 68.5668 168.068 68.9554 167.915 69.3415C167.855 69.4908 167.712 69.5817 167.561 69.5817ZM168.596 67.2648C168.538 67.2648 168.481 67.2519 168.426 67.2248C168.238 67.1311 168.161 66.9024 168.255 66.7141C168.445 66.3329 168.645 65.9502 168.851 65.5767C168.952 65.3926 169.184 65.3253 169.368 65.4268C169.553 65.5284 169.62 65.76 169.518 65.9442C169.318 66.3086 169.122 66.682 168.937 67.0537C168.87 67.1874 168.735 67.2648 168.596 67.2648ZM169.819 65.0434C169.752 65.0434 169.684 65.0257 169.622 64.9882C169.442 64.879 169.385 64.6449 169.494 64.465C169.715 64.1009 169.946 63.7361 170.182 63.3809C170.298 63.2057 170.535 63.158 170.71 63.2744C170.885 63.3908 170.933 63.6271 170.817 63.8024C170.587 64.1489 170.361 64.5048 170.145 64.86C170.074 64.9782 169.948 65.0434 169.819 65.0434ZM171.222 62.9302C171.145 62.9302 171.067 62.9066 170.999 62.8578C170.829 62.7343 170.791 62.4963 170.914 62.326C171.163 61.9823 171.424 61.6376 171.688 61.3015C171.818 61.1361 172.058 61.1077 172.223 61.2378C172.388 61.3678 172.417 61.6074 172.287 61.7727C172.029 62.1009 171.774 62.4374 171.531 62.7729C171.457 62.8757 171.341 62.9302 171.222 62.9302ZM172.792 60.9364C172.704 60.9364 172.616 60.9065 172.545 60.8454C172.385 60.7089 172.366 60.4685 172.502 60.3085C172.777 59.9854 173.064 59.6623 173.353 59.3478C173.496 59.1929 173.737 59.1833 173.892 59.3257C174.046 59.4682 174.056 59.7091 173.914 59.8638C173.631 60.1711 173.351 60.487 173.082 60.8026C173.006 60.8911 172.899 60.9364 172.792 60.9364ZM174.51 59.0692C174.413 59.0692 174.317 59.0324 174.242 58.9588C174.093 58.8107 174.092 58.5695 174.24 58.4202C174.538 58.1197 174.848 57.8187 175.16 57.5258C175.313 57.3821 175.554 57.3897 175.698 57.5428C175.842 57.6962 175.834 57.9372 175.681 58.0812C175.375 58.3679 175.073 58.6624 174.781 58.9565C174.706 59.0317 174.608 59.0692 174.51 59.0692ZM176.361 57.3323C176.255 57.3323 176.15 57.2883 176.074 57.2021C175.936 57.0437 175.952 56.803 176.11 56.6646C176.43 56.3857 176.759 56.1072 177.09 55.8368C177.253 55.7037 177.493 55.7278 177.626 55.8908C177.759 56.0537 177.735 56.2937 177.572 56.4267C177.248 56.6915 176.925 56.9646 176.612 57.238C176.54 57.3013 176.45 57.3323 176.361 57.3323ZM178.327 55.726C178.213 55.726 178.099 55.6745 178.024 55.5763C177.897 55.4091 177.929 55.1701 178.096 55.0424C178.432 54.7858 178.778 54.5293 179.126 54.2804C179.298 54.1578 179.535 54.1976 179.658 54.3685C179.78 54.5396 179.741 54.7775 179.57 54.8999C179.228 55.1442 178.888 55.396 178.558 55.6477C178.489 55.7004 178.408 55.726 178.327 55.726ZM180.392 54.2478C180.27 54.2478 180.149 54.1887 180.076 54.0792C179.959 53.9046 180.005 53.6679 180.18 53.5506C180.529 53.3165 180.89 53.0816 181.254 52.8525C181.432 52.7402 181.667 52.794 181.779 52.9718C181.891 53.1499 181.838 53.3851 181.66 53.4972C181.302 53.7223 180.947 53.953 180.604 54.1831C180.539 54.2268 180.465 54.2478 180.392 54.2478ZM182.542 52.8942C182.412 52.8942 182.285 52.8274 182.214 52.7072C182.107 52.5261 182.167 52.2925 182.348 52.1854C182.711 51.971 183.084 51.7568 183.459 51.549C183.643 51.4469 183.874 51.5134 183.977 51.6972C184.079 51.8811 184.013 52.1129 183.828 52.215C183.46 52.4195 183.092 52.6302 182.735 52.8412C182.674 52.8773 182.608 52.8942 182.542 52.8942ZM184.763 51.661C184.625 51.661 184.493 51.5864 184.425 51.4562C184.327 51.2697 184.399 51.0398 184.586 50.9424C184.967 50.7434 185.348 50.5509 185.728 50.3647C185.917 50.2718 186.145 50.35 186.238 50.539C186.33 50.7278 186.252 50.9561 186.063 51.0486C185.689 51.2321 185.314 51.4216 184.938 51.6177C184.882 51.647 184.822 51.661 184.763 51.661ZM187.044 50.5424C186.9 50.5424 186.762 50.4602 186.698 50.3209C186.609 50.1298 186.693 49.9035 186.884 49.8155C187.275 49.6351 187.665 49.4613 188.053 49.2938C188.246 49.2106 188.47 49.2993 188.553 49.4923C188.637 49.6853 188.548 49.9096 188.355 49.993C187.973 50.158 187.589 50.3295 187.203 50.5073C187.151 50.5311 187.097 50.5424 187.044 50.5424ZM189.376 49.5331C189.225 49.5331 189.083 49.4433 189.023 49.2952C188.944 49.1002 189.038 48.8781 189.233 48.7991C189.633 48.6367 190.031 48.4809 190.423 48.3316C190.62 48.2565 190.84 48.3558 190.915 48.5522C190.99 48.7488 190.891 48.9688 190.694 49.0435C190.306 49.191 189.914 49.3449 189.519 49.5051C189.472 49.5241 189.424 49.5331 189.376 49.5331ZM191.752 48.6297C191.595 48.6297 191.449 48.5324 191.393 48.3763C191.323 48.1781 191.426 47.9603 191.624 47.8899C192.034 47.7442 192.437 47.6058 192.834 47.474C193.033 47.4073 193.249 47.516 193.315 47.7154C193.382 47.915 193.274 48.1306 193.074 48.1968C192.682 48.3271 192.284 48.4638 191.879 48.6075C191.837 48.6225 191.794 48.6297 191.752 48.6297ZM194.165 47.8283C194.002 47.8283 193.852 47.7233 193.801 47.5599C193.739 47.3589 193.851 47.1456 194.052 47.0834C194.471 46.9539 194.88 46.8323 195.279 46.7179C195.481 46.6597 195.692 46.7768 195.75 46.979C195.808 47.1812 195.691 47.3922 195.489 47.4501C195.095 47.5629 194.691 47.683 194.277 47.811C194.24 47.8227 194.202 47.8283 194.165 47.8283ZM196.61 47.1273C196.441 47.1273 196.287 47.0144 196.242 46.8439C196.188 46.6405 196.309 46.4321 196.513 46.3781C196.943 46.2642 197.357 46.1594 197.754 46.0634C197.958 46.0142 198.164 46.1393 198.214 46.3438C198.263 46.5483 198.138 46.7542 197.933 46.8037C197.542 46.8987 197.133 47.002 196.708 47.1147C196.675 47.123 196.642 47.1273 196.61 47.1273ZM199.083 46.5277C198.908 46.5277 198.751 46.4064 198.711 46.2286C198.666 46.0231 198.796 45.8199 199.002 45.7748C199.455 45.6751 199.875 45.5885 200.257 45.5136C200.464 45.473 200.664 45.6078 200.704 45.8142C200.744 46.0206 200.61 46.2208 200.403 46.2612C200.026 46.3351 199.612 46.4205 199.165 46.5187C199.138 46.5248 199.11 46.5277 199.083 46.5277ZM201.584 46.0392C201.401 46.0392 201.24 45.9077 201.209 45.7217C201.174 45.5143 201.313 45.3178 201.521 45.2828C202.332 45.1461 202.788 45.0929 202.806 45.0906C203.015 45.0654 203.204 45.2162 203.228 45.4253C203.253 45.6342 203.103 45.8231 202.894 45.8475C202.889 45.848 202.437 45.901 201.647 46.034C201.626 46.0375 201.605 46.0392 201.584 46.0392Z" fill="white"/>
<path d="M135.782 66.8744C135.778 66.8744 135.774 66.8744 135.771 66.8743C135.56 66.8683 135.395 66.693 135.401 66.4828C135.413 66.0544 135.432 65.6239 135.457 65.203C135.469 64.993 135.651 64.834 135.86 64.8454C136.07 64.858 136.23 65.0383 136.217 65.2483C136.193 65.6613 136.174 66.0839 136.162 66.5043C136.156 66.7108 135.987 66.8744 135.782 66.8744ZM135.934 64.3414C135.922 64.3414 135.91 64.3408 135.898 64.3398C135.689 64.3204 135.534 64.135 135.554 63.9255C135.593 63.501 135.64 63.0724 135.693 62.6518C135.719 62.443 135.911 62.2952 136.118 62.3215C136.327 62.3478 136.475 62.5383 136.449 62.747C136.397 63.1594 136.351 63.5793 136.312 63.9954C136.294 64.1931 136.128 64.3414 135.934 64.3414ZM136.251 61.8246C136.231 61.8246 136.211 61.8231 136.19 61.8199C135.983 61.7865 135.841 61.5912 135.875 61.3834C135.942 60.9624 136.018 60.5378 136.1 60.1214C136.14 59.9151 136.34 59.7795 136.547 59.8211C136.753 59.8615 136.888 60.0617 136.847 60.2681C136.767 60.6759 136.693 61.0917 136.627 61.5041C136.597 61.6914 136.435 61.8246 136.251 61.8246ZM136.74 59.3352C136.712 59.3352 136.683 59.3318 136.653 59.3252C136.448 59.2774 136.321 59.0725 136.369 58.8677C136.466 58.4514 136.572 58.033 136.683 57.6242C136.738 57.4212 136.947 57.302 137.15 57.3564C137.353 57.4116 137.473 57.6207 137.418 57.8238C137.309 58.2238 137.206 58.6331 137.111 59.0406C137.07 59.2165 136.913 59.3352 136.74 59.3352ZM137.405 56.8865C137.368 56.8865 137.329 56.8809 137.292 56.8692C137.091 56.8067 136.979 56.5933 137.041 56.3925C137.168 55.9843 137.303 55.5745 137.444 55.1745C137.514 54.9761 137.731 54.872 137.929 54.9413C138.128 55.0111 138.232 55.2284 138.163 55.4269C138.025 55.8182 137.893 56.2191 137.769 56.6182C137.718 56.7817 137.567 56.8865 137.405 56.8865ZM138.245 54.4926C138.199 54.4926 138.152 54.484 138.106 54.466C137.91 54.3892 137.814 54.1681 137.891 53.9724C138.046 53.5759 138.212 53.1771 138.382 52.7868C138.466 52.5941 138.69 52.5058 138.883 52.59C139.076 52.674 139.164 52.8986 139.08 53.0914C138.914 53.473 138.752 53.8631 138.6 54.2508C138.541 54.4008 138.397 54.4926 138.245 54.4926ZM139.259 52.1662C139.204 52.1662 139.148 52.154 139.095 52.1284C138.905 52.0375 138.825 51.81 138.916 51.6203C139.1 51.2376 139.294 50.8518 139.493 50.4741C139.591 50.2879 139.822 50.2162 140.008 50.3145C140.194 50.4125 140.265 50.6428 140.167 50.8289C139.973 51.1984 139.783 51.5756 139.603 51.9501C139.537 52.0865 139.401 52.1662 139.259 52.1662ZM140.442 49.9206C140.377 49.9206 140.312 49.9042 140.252 49.87C140.07 49.7653 140.007 49.5325 140.112 49.3501C140.323 48.9822 140.544 48.6117 140.771 48.2489C140.882 48.0705 141.117 48.0162 141.295 48.1271C141.474 48.2384 141.528 48.4734 141.417 48.6518C141.196 49.0069 140.979 49.3694 140.772 49.7292C140.702 49.8518 140.574 49.9206 140.442 49.9206ZM141.784 47.7662C141.711 47.7662 141.637 47.7451 141.572 47.7009C141.397 47.5833 141.352 47.3466 141.469 47.1721C141.707 46.8195 141.955 46.4659 142.206 46.1214C142.33 45.9514 142.568 45.914 142.738 46.0376C142.908 46.1614 142.946 46.3997 142.822 46.5697C142.576 46.9071 142.334 47.2531 142.101 47.5984C142.027 47.7074 141.907 47.7662 141.784 47.7662ZM143.279 45.7132C143.197 45.7132 143.114 45.6868 143.045 45.6321C142.879 45.5025 142.85 45.263 142.98 45.0975C143.242 44.7628 143.514 44.4276 143.789 44.1012C143.924 43.9405 144.165 43.9196 144.325 44.0551C144.486 44.1905 144.507 44.4307 144.372 44.5917C144.103 44.9115 143.836 45.2396 143.579 45.5672C143.504 45.6631 143.392 45.7132 143.279 45.7132ZM144.915 43.7699C144.824 43.7699 144.732 43.7375 144.66 43.6718C144.503 43.5309 144.491 43.2901 144.632 43.134C144.916 42.8193 145.21 42.5038 145.508 42.1959C145.654 42.0449 145.895 42.0407 146.047 42.187C146.198 42.3332 146.202 42.5743 146.056 42.7256C145.764 43.027 145.475 43.336 145.197 43.6441C145.122 43.7275 145.019 43.7699 144.915 43.7699ZM146.68 41.9433C146.581 41.9433 146.481 41.9045 146.406 41.8271C146.26 41.6758 146.264 41.4347 146.416 41.2885C146.722 40.9921 147.038 40.6972 147.354 40.4122C147.51 40.2713 147.751 40.2838 147.892 40.4398C148.033 40.596 148.021 40.8368 147.864 40.9778C147.555 41.257 147.246 41.5457 146.945 41.8363C146.871 41.9078 146.776 41.9433 146.68 41.9433ZM148.568 40.2406C148.459 40.2406 148.352 40.1945 148.276 40.1051C148.141 39.9443 148.161 39.704 148.322 39.5683C148.648 39.2935 148.984 39.0209 149.319 38.7581C149.484 38.6282 149.724 38.657 149.854 38.8227C149.983 38.9882 149.954 39.2276 149.789 39.3575C149.461 39.615 149.132 39.8819 148.813 40.1509C148.741 40.2112 148.654 40.2406 148.568 40.2406ZM150.569 38.6716C150.451 38.6716 150.335 38.6172 150.26 38.5148C150.137 38.3447 150.174 38.1066 150.344 37.9827C150.694 37.7282 151.048 37.4801 151.398 37.2451C151.573 37.1279 151.81 37.1744 151.927 37.3491C152.044 37.5238 151.998 37.7604 151.823 37.8777C151.481 38.1071 151.134 38.3498 150.793 38.5987C150.725 38.6479 150.647 38.6716 150.569 38.6716ZM152.683 37.2555C152.554 37.2555 152.429 37.1905 152.357 37.0728C152.248 36.8931 152.305 36.6588 152.484 36.5493C153.189 36.1201 153.606 35.9113 153.623 35.9026C153.812 35.8083 154.04 35.8853 154.134 36.0733C154.228 36.2616 154.152 36.4903 153.964 36.5843C153.96 36.5863 153.555 36.7894 152.881 37.2C152.819 37.2377 152.75 37.2555 152.683 37.2555Z" fill="white"/>
<defs>
<linearGradient id="paint0_linear_2327_788" x1="250" y1="80.7091" x2="2.98023e-05" y2="80.7091" gradientUnits="userSpaceOnUse">
<stop stop-color="#DAE3FE"/>
<stop offset="1" stop-color="#E9EFFD"/>
</linearGradient>
<linearGradient id="paint1_linear_2327_788" x1="22.3476" y1="123.878" x2="62.6076" y2="123.878" gradientUnits="userSpaceOnUse">
<stop stop-color="#DAE3FE"/>
<stop offset="1" stop-color="#E9EFFD"/>
</linearGradient>
<linearGradient id="paint2_linear_2327_788" x1="124.92" y1="131.022" x2="125.138" y2="167.979" gradientUnits="userSpaceOnUse">
<stop stop-color="#09005D"/>
<stop offset="1" stop-color="#1A0F91"/>
</linearGradient>
<linearGradient id="paint3_linear_2327_788" x1="130.309" y1="37.6017" x2="125.526" y2="84.993" gradientUnits="userSpaceOnUse">
<stop stop-color="#09005D"/>
<stop offset="1" stop-color="#1A0F91"/>
</linearGradient>
<linearGradient id="paint4_linear_2327_788" x1="44.2098" y1="139.485" x2="202.036" y2="49.4853" gradientUnits="userSpaceOnUse">
<stop stop-color="#4042E2"/>
<stop offset="1" stop-color="#4F52FF"/>
</linearGradient>
<linearGradient id="paint5_linear_2327_788" x1="124.901" y1="124.047" x2="124.901" y2="137.308" gradientUnits="userSpaceOnUse">
<stop stop-color="#09005D"/>
<stop offset="1" stop-color="#1A0F91"/>
</linearGradient>
<linearGradient id="paint6_linear_2327_788" x1="90.2802" y1="110.724" x2="256.927" y2="6.03991" gradientUnits="userSpaceOnUse">
<stop stop-color="#FE7062"/>
<stop offset="1" stop-color="#FF928E"/>
</linearGradient>
<linearGradient id="paint7_linear_2327_788" x1="131.472" y1="54.4402" x2="126.907" y2="91.2917" gradientUnits="userSpaceOnUse">
<stop stop-color="#09005D"/>
<stop offset="1" stop-color="#1A0F91"/>
</linearGradient>
<linearGradient id="paint8_linear_2327_788" x1="129.48" y1="99.6803" x2="61.9327" y2="128.589" gradientUnits="userSpaceOnUse">
<stop stop-color="#FE7062"/>
<stop offset="1" stop-color="#FF928E"/>
</linearGradient>
<linearGradient id="paint9_linear_2327_788" x1="226.718" y1="129.416" x2="201.283" y2="152.024" gradientUnits="userSpaceOnUse">
<stop stop-color="#FF928E"/>
<stop offset="1" stop-color="#FEB3B1"/>
</linearGradient>
<linearGradient id="paint10_linear_2327_788" x1="231.361" y1="103.529" x2="223.535" y2="116.355" gradientUnits="userSpaceOnUse">
<stop stop-color="#FF928E"/>
<stop offset="0.5799" stop-color="#FEA5A2"/>
<stop offset="1" stop-color="#FEB3B1"/>
</linearGradient>
<linearGradient id="paint11_linear_2327_788" x1="225.028" y1="93.7951" x2="218.691" y2="93.7951" gradientUnits="userSpaceOnUse">
<stop stop-color="#FF928E"/>
<stop offset="1" stop-color="#FEB3B1"/>
</linearGradient>
<linearGradient id="paint12_linear_2327_788" x1="213.05" y1="110.568" x2="213.05" y2="156.872" gradientUnits="userSpaceOnUse">
<stop stop-color="#09005D"/>
<stop offset="1" stop-color="#1A0F91"/>
</linearGradient>
<linearGradient id="paint13_linear_2327_788" x1="251.723" y1="223.633" x2="269.68" y2="266.317" gradientUnits="userSpaceOnUse">
<stop stop-color="#09005D"/>
<stop offset="1" stop-color="#1A0F91"/>
</linearGradient>
<linearGradient id="paint14_linear_2327_788" x1="223.059" y1="100.89" x2="208.277" y2="123.281" gradientUnits="userSpaceOnUse">
<stop stop-color="#09005D"/>
<stop offset="1" stop-color="#1A0F91"/>
</linearGradient>
<linearGradient id="paint15_linear_2327_788" x1="218.11" y1="79.6573" x2="213.609" y2="79.6573" gradientUnits="userSpaceOnUse">
<stop stop-color="#FF928E"/>
<stop offset="1" stop-color="#FEB3B1"/>
</linearGradient>
<linearGradient id="paint16_linear_2327_788" x1="210" y1="84.5326" x2="233.831" y2="115.105" gradientUnits="userSpaceOnUse">
<stop stop-color="#FE7062"/>
<stop offset="1" stop-color="#FF928E"/>
</linearGradient>
<linearGradient id="paint17_linear_2327_788" x1="206.334" y1="66.3111" x2="205.03" y2="80.0068" gradientUnits="userSpaceOnUse">
<stop stop-color="#FF928E"/>
<stop offset="1" stop-color="#FEB3B1"/>
</linearGradient>
<linearGradient id="paint18_linear_2327_788" x1="196.795" y1="65.4025" x2="195.49" y2="79.0982" gradientUnits="userSpaceOnUse">
<stop stop-color="#FF928E"/>
<stop offset="1" stop-color="#FEB3B1"/>
</linearGradient>
<linearGradient id="paint19_linear_2327_788" x1="219.992" y1="66.418" x2="212.275" y2="77.0702" gradientUnits="userSpaceOnUse">
<stop stop-color="#FF928E"/>
<stop offset="1" stop-color="#FEB3B1"/>
</linearGradient>
<linearGradient id="paint20_linear_2327_788" x1="239.274" y1="83.1753" x2="210.779" y2="83.1753" gradientUnits="userSpaceOnUse">
<stop stop-color="#09005D"/>
<stop offset="1" stop-color="#1A0F91"/>
</linearGradient>
<linearGradient id="paint21_linear_2327_788" x1="32.2791" y1="88.9675" x2="7.98689" y2="122.553" gradientUnits="userSpaceOnUse">
<stop stop-color="#FF928E"/>
<stop offset="1" stop-color="#FEB3B1"/>
</linearGradient>
<linearGradient id="paint22_linear_2327_788" x1="18.8889" y1="179.01" x2="24.2512" y2="160.894" gradientUnits="userSpaceOnUse">
<stop stop-color="#09005D"/>
<stop offset="1" stop-color="#1A0F91"/>
</linearGradient>
<linearGradient id="paint23_linear_2327_788" x1="39.3382" y1="145.48" x2="15.4858" y2="164.209" gradientUnits="userSpaceOnUse">
<stop stop-color="#09005D"/>
<stop offset="1" stop-color="#1A0F91"/>
</linearGradient>
<linearGradient id="paint24_linear_2327_788" x1="24.7472" y1="145.75" x2="23.4949" y2="156.68" gradientUnits="userSpaceOnUse">
<stop stop-color="#FF928E"/>
<stop offset="1" stop-color="#FEB3B1"/>
</linearGradient>
<linearGradient id="paint25_linear_2327_788" x1="43.5738" y1="150.876" x2="19.7217" y2="169.605" gradientUnits="userSpaceOnUse">
<stop stop-color="#09005D"/>
<stop offset="1" stop-color="#1A0F91"/>
</linearGradient>
<linearGradient id="paint26_linear_2327_788" x1="29.4513" y1="182.137" x2="34.8136" y2="164.021" gradientUnits="userSpaceOnUse">
<stop stop-color="#09005D"/>
<stop offset="1" stop-color="#1A0F91"/>
</linearGradient>
<linearGradient id="paint27_linear_2327_788" x1="34.9476" y1="146.92" x2="33.6952" y2="157.85" gradientUnits="userSpaceOnUse">
<stop stop-color="#FF928E"/>
<stop offset="1" stop-color="#FEB3B1"/>
</linearGradient>
<linearGradient id="paint28_linear_2327_788" x1="60.1629" y1="80.9062" x2="20.1072" y2="143.062" gradientUnits="userSpaceOnUse">
<stop stop-color="#09005D"/>
<stop offset="1" stop-color="#1A0F91"/>
</linearGradient>
<linearGradient id="paint29_linear_2327_788" x1="25.2532" y1="84.7215" x2="18.8209" y2="147.704" gradientUnits="userSpaceOnUse">
<stop stop-color="#FE7062"/>
<stop offset="1" stop-color="#FF928E"/>
</linearGradient>
<linearGradient id="paint30_linear_2327_788" x1="27.5145" y1="75.8783" x2="22.7326" y2="96.5426" gradientUnits="userSpaceOnUse">
<stop stop-color="#FF928E"/>
<stop offset="1" stop-color="#FEB3B1"/>
</linearGradient>
<linearGradient id="paint31_linear_2327_788" x1="40.2843" y1="60.6656" x2="35.2302" y2="66.3718" gradientUnits="userSpaceOnUse">
<stop stop-color="#FF928E"/>
<stop offset="1" stop-color="#FEB3B1"/>
</linearGradient>
<linearGradient id="paint32_linear_2327_788" x1="24.2454" y1="78.4423" x2="31.1911" y2="71.0639" gradientUnits="userSpaceOnUse">
<stop stop-color="#09005D"/>
<stop offset="1" stop-color="#1A0F91"/>
</linearGradient>
<linearGradient id="paint33_linear_2327_788" x1="24.6787" y1="87.0155" x2="24.2595" y2="77.2762" gradientUnits="userSpaceOnUse">
<stop stop-color="#FF928E"/>
<stop offset="1" stop-color="#FEB3B1"/>
</linearGradient>
<linearGradient id="paint34_linear_2327_788" x1="54.6574" y1="75.0184" x2="22.7008" y2="88.4967" gradientUnits="userSpaceOnUse">
<stop stop-color="#E1473D"/>
<stop offset="1" stop-color="#E9605A"/>
</linearGradient>
<linearGradient id="paint35_linear_2327_788" x1="21.9783" y1="123.22" x2="18.6195" y2="129.197" gradientUnits="userSpaceOnUse">
<stop stop-color="#09005D"/>
<stop offset="1" stop-color="#1A0F91"/>
</linearGradient>
<linearGradient id="paint36_linear_2327_788" x1="39.9097" y1="86.1204" x2="33.0245" y2="153.538" gradientUnits="userSpaceOnUse">
<stop stop-color="#FE7062"/>
<stop offset="1" stop-color="#FF928E"/>
</linearGradient>
<linearGradient id="paint37_linear_2327_788" x1="64.7712" y1="60.5163" x2="58.4129" y2="77.6351" gradientUnits="userSpaceOnUse">
<stop stop-color="#FF928E"/>
<stop offset="1" stop-color="#FEB3B1"/>
</linearGradient>
<linearGradient id="paint38_linear_2327_788" x1="70.4482" y1="62.6256" x2="64.0898" y2="79.7443" gradientUnits="userSpaceOnUse">
<stop stop-color="#FF928E"/>
<stop offset="1" stop-color="#FEB3B1"/>
</linearGradient>
<linearGradient id="paint39_linear_2327_788" x1="-167.031" y1="-312.35" x2="-159.744" y2="-296.555" gradientUnits="userSpaceOnUse">
<stop stop-color="#09005D"/>
<stop offset="1" stop-color="#1A0F91"/>
</linearGradient>
<linearGradient id="paint40_linear_2327_788" x1="82.6932" y1="128.186" x2="59.2149" y2="138.186" gradientUnits="userSpaceOnUse">
<stop stop-color="#FF928E"/>
<stop offset="1" stop-color="#FEB3B1"/>
</linearGradient>
<linearGradient id="paint41_linear_2327_788" x1="42.1481" y1="103.053" x2="47.6098" y2="117.368" gradientUnits="userSpaceOnUse">
<stop stop-color="#FF928E"/>
<stop offset="1" stop-color="#FEB3B1"/>
</linearGradient>
<linearGradient id="paint42_linear_2327_788" x1="40.9962" y1="103.282" x2="46.7585" y2="118.386" gradientUnits="userSpaceOnUse">
<stop stop-color="#FF928E"/>
<stop offset="1" stop-color="#FEB3B1"/>
</linearGradient>
<linearGradient id="paint43_linear_2327_788" x1="68.4134" y1="102.19" x2="62.6511" y2="117.294" gradientUnits="userSpaceOnUse">
<stop stop-color="#FF928E"/>
<stop offset="1" stop-color="#FEB3B1"/>
</linearGradient>
<linearGradient id="paint44_linear_2327_788" x1="69.3961" y1="102.565" x2="63.6339" y2="117.669" gradientUnits="userSpaceOnUse">
<stop stop-color="#FF928E"/>
<stop offset="1" stop-color="#FEB3B1"/>
</linearGradient>
<linearGradient id="paint45_linear_2327_788" x1="60.8143" y1="147.412" x2="58.423" y2="152.629" gradientUnits="userSpaceOnUse">
<stop stop-color="#09005D"/>
<stop offset="1" stop-color="#1A0F91"/>
</linearGradient>
<linearGradient id="paint46_linear_2327_788" x1="87.7559" y1="118.956" x2="71.8863" y2="132.652" gradientUnits="userSpaceOnUse">
<stop stop-color="#FF928E"/>
<stop offset="1" stop-color="#FEB3B1"/>
</linearGradient>
<linearGradient id="paint47_linear_2327_788" x1="63.329" y1="112.947" x2="58.0567" y2="102.615" gradientUnits="userSpaceOnUse">
<stop stop-color="#FF928E"/>
<stop offset="1" stop-color="#FEB3B1"/>
</linearGradient>
<linearGradient id="paint48_linear_2327_788" x1="56.3619" y1="115.033" x2="53.0853" y2="135.363" gradientUnits="userSpaceOnUse">
<stop stop-color="#FE7062"/>
<stop offset="1" stop-color="#FF928E"/>
</linearGradient>
<linearGradient id="paint49_linear_2327_788" x1="55.2224" y1="112.525" x2="55.2224" y2="122.815" gradientUnits="userSpaceOnUse">
<stop stop-color="#FF928E"/>
<stop offset="1" stop-color="#FEB3B1"/>
</linearGradient>
<linearGradient id="paint50_linear_2327_788" x1="58.2577" y1="110.487" x2="49.7627" y2="104.16" gradientUnits="userSpaceOnUse">
<stop stop-color="#09005D"/>
<stop offset="1" stop-color="#1A0F91"/>
</linearGradient>
<linearGradient id="paint51_linear_2327_788" x1="133.768" y1="176.052" x2="126.174" y2="169.554" gradientUnits="userSpaceOnUse">
<stop stop-color="#FF928E"/>
<stop offset="1" stop-color="#FEB3B1"/>
</linearGradient>
<linearGradient id="paint52_linear_2327_788" x1="58.0703" y1="110.326" x2="50.7125" y2="103.591" gradientUnits="userSpaceOnUse">
<stop stop-color="#09005D"/>
<stop offset="1" stop-color="#1A0F91"/>
</linearGradient>
<linearGradient id="paint53_linear_2327_788" x1="131.222" y1="179.028" x2="123.628" y2="172.53" gradientUnits="userSpaceOnUse">
<stop stop-color="#FF928E"/>
<stop offset="1" stop-color="#FEB3B1"/>
</linearGradient>
<linearGradient id="paint54_linear_2327_788" x1="187.317" y1="118.306" x2="194.97" y2="128.885" gradientUnits="userSpaceOnUse">
<stop stop-color="#FF928E"/>
<stop offset="1" stop-color="#FEB3B1"/>
</linearGradient>
<linearGradient id="paint55_linear_2327_788" x1="187.646" y1="119.162" x2="195.978" y2="130.68" gradientUnits="userSpaceOnUse">
<stop stop-color="#FF928E"/>
<stop offset="1" stop-color="#FEB3B1"/>
</linearGradient>
<linearGradient id="paint56_linear_2327_788" x1="185.502" y1="99.1216" x2="185.284" y2="102.745" gradientUnits="userSpaceOnUse">
<stop stop-color="#FF928E"/>
<stop offset="1" stop-color="#FEB3B1"/>
</linearGradient>
<linearGradient id="paint57_linear_2327_788" x1="188.656" y1="107.669" x2="194.674" y2="112.979" gradientUnits="userSpaceOnUse">
<stop stop-color="#E1473D"/>
<stop offset="1" stop-color="#E9605A"/>
</linearGradient>
<linearGradient id="paint58_linear_2327_788" x1="206.159" y1="113.57" x2="201.351" y2="112.706" gradientUnits="userSpaceOnUse">
<stop stop-color="#E1473D"/>
<stop offset="1" stop-color="#E9605A"/>
</linearGradient>
<linearGradient id="paint59_linear_2327_788" x1="193.444" y1="106.751" x2="196.582" y2="114.081" gradientUnits="userSpaceOnUse">
<stop stop-color="#E1473D"/>
<stop offset="1" stop-color="#E9605A"/>
</linearGradient>
<linearGradient id="paint60_linear_2327_788" x1="206.926" y1="195.334" x2="203.013" y2="184.609" gradientUnits="userSpaceOnUse">
<stop stop-color="#09005D"/>
<stop offset="1" stop-color="#1A0F91"/>
</linearGradient>
<linearGradient id="paint61_linear_2327_788" x1="212.606" y1="193.262" x2="208.693" y2="182.537" gradientUnits="userSpaceOnUse">
<stop stop-color="#09005D"/>
<stop offset="1" stop-color="#1A0F91"/>
</linearGradient>
<linearGradient id="paint62_linear_2327_788" x1="195.794" y1="115.359" x2="197.46" y2="128.258" gradientUnits="userSpaceOnUse">
<stop stop-color="#FF928E"/>
<stop offset="1" stop-color="#FEB3B1"/>
</linearGradient>
<linearGradient id="paint63_linear_2327_788" x1="205.473" y1="136.076" x2="201.56" y2="141.946" gradientUnits="userSpaceOnUse">
<stop stop-color="#FF928E"/>
<stop offset="1" stop-color="#FEB3B1"/>
</linearGradient>
<linearGradient id="paint64_linear_2327_788" x1="204.122" y1="133.942" x2="198.035" y2="140.754" gradientUnits="userSpaceOnUse">
<stop stop-color="#FF928E"/>
<stop offset="1" stop-color="#FEB3B1"/>
</linearGradient>
<linearGradient id="paint65_linear_2327_788" x1="211.41" y1="140.803" x2="198.779" y2="123.448" gradientUnits="userSpaceOnUse">
<stop stop-color="#FF928E"/>
<stop offset="1" stop-color="#FEB3B1"/>
</linearGradient>
<linearGradient id="paint66_linear_2327_788" x1="200.912" y1="102.291" x2="189.607" y2="160.986" gradientUnits="userSpaceOnUse">
<stop stop-color="#FE7062"/>
<stop offset="1" stop-color="#FF928E"/>
</linearGradient>
<linearGradient id="paint67_linear_2327_788" x1="199.044" y1="117.816" x2="193.691" y2="177.347" gradientUnits="userSpaceOnUse">
<stop stop-color="#FE7062"/>
<stop offset="1" stop-color="#FF928E"/>
</linearGradient>
<linearGradient id="paint68_linear_2327_788" x1="194.223" y1="122.653" x2="195.712" y2="125.888" gradientUnits="userSpaceOnUse">
<stop stop-color="#E1473D"/>
<stop offset="1" stop-color="#E9605A"/>
</linearGradient>
<linearGradient id="paint69_linear_2327_788" x1="196.979" y1="110.059" x2="195.167" y2="118.175" gradientUnits="userSpaceOnUse">
<stop stop-color="#FF928E"/>
<stop offset="1" stop-color="#FEB3B1"/>
</linearGradient>
<linearGradient id="paint70_linear_2327_788" x1="193.453" y1="109.272" x2="191.641" y2="117.387" gradientUnits="userSpaceOnUse">
<stop stop-color="#FF928E"/>
<stop offset="1" stop-color="#FEB3B1"/>
</linearGradient>
<linearGradient id="paint71_linear_2327_788" x1="200.435" y1="110.83" x2="198.624" y2="118.946" gradientUnits="userSpaceOnUse">
<stop stop-color="#FF928E"/>
<stop offset="1" stop-color="#FEB3B1"/>
</linearGradient>
<linearGradient id="paint72_linear_2327_788" x1="193.481" y1="106.735" x2="196.619" y2="114.065" gradientUnits="userSpaceOnUse">
<stop stop-color="#E1473D"/>
<stop offset="1" stop-color="#E9605A"/>
</linearGradient>
<linearGradient id="paint73_linear_2327_788" x1="193.959" y1="91.6143" x2="193.416" y2="104.223" gradientUnits="userSpaceOnUse">
<stop stop-color="#FF928E"/>
<stop offset="0.5799" stop-color="#FEA5A2"/>
<stop offset="1" stop-color="#FEB3B1"/>
</linearGradient>
</defs>
</svg>
