<svg width="45" height="41" viewBox="0 0 45 41" fill="none" xmlns="http://www.w3.org/2000/svg">
<mask id="path-1-inside-1_509_6842" fill="white">
<path fill-rule="evenodd" clip-rule="evenodd" d="M7.25404 0.179688C3.24774 0.179688 0 3.42743 0 7.43372V16.0347V16.8906V29.2139C0 33.2765 0 35.3078 0.790643 36.8595C1.48611 38.2245 2.59584 39.3342 3.96077 40.0297C5.5125 40.8203 7.54382 40.8203 11.6065 40.8203H33.3933C37.4559 40.8203 39.4872 40.8203 41.039 40.0297C42.4039 39.3342 43.5136 38.2245 44.2091 36.8595C44.9997 35.3078 44.9997 33.2765 44.9997 29.2139V16.0347C44.9997 11.9721 44.9997 9.94076 44.2091 8.38903C43.5136 7.0241 42.4039 5.91437 41.039 5.2189C39.4872 4.42826 37.4559 4.42826 33.3933 4.42826H28.5237C24.7798 4.42826 21.1831 0.179688 17.4392 0.179688H7.25404Z"/>
</mask>
<path fill-rule="evenodd" clip-rule="evenodd" d="M7.25404 0.179688C3.24774 0.179688 0 3.42743 0 7.43372V16.0347V16.8906V29.2139C0 33.2765 0 35.3078 0.790643 36.8595C1.48611 38.2245 2.59584 39.3342 3.96077 40.0297C5.5125 40.8203 7.54382 40.8203 11.6065 40.8203H33.3933C37.4559 40.8203 39.4872 40.8203 41.039 40.0297C42.4039 39.3342 43.5136 38.2245 44.2091 36.8595C44.9997 35.3078 44.9997 33.2765 44.9997 29.2139V16.0347C44.9997 11.9721 44.9997 9.94076 44.2091 8.38903C43.5136 7.0241 42.4039 5.91437 41.039 5.2189C39.4872 4.42826 37.4559 4.42826 33.3933 4.42826H28.5237C24.7798 4.42826 21.1831 0.179688 17.4392 0.179688H7.25404Z" fill="#D9D9D9"/>
<path fill-rule="evenodd" clip-rule="evenodd" d="M7.25404 0.179688C3.24774 0.179688 0 3.42743 0 7.43372V16.0347V16.8906V29.2139C0 33.2765 0 35.3078 0.790643 36.8595C1.48611 38.2245 2.59584 39.3342 3.96077 40.0297C5.5125 40.8203 7.54382 40.8203 11.6065 40.8203H33.3933C37.4559 40.8203 39.4872 40.8203 41.039 40.0297C42.4039 39.3342 43.5136 38.2245 44.2091 36.8595C44.9997 35.3078 44.9997 33.2765 44.9997 29.2139V16.0347C44.9997 11.9721 44.9997 9.94076 44.2091 8.38903C43.5136 7.0241 42.4039 5.91437 41.039 5.2189C39.4872 4.42826 37.4559 4.42826 33.3933 4.42826H28.5237C24.7798 4.42826 21.1831 0.179688 17.4392 0.179688H7.25404Z" fill="url(#paint0_radial_509_6842)"/>
<path d="M0.790643 36.8595L1.04918 36.7278L0.790643 36.8595ZM3.96077 40.0297L3.82904 40.2882L3.96077 40.0297ZM41.039 40.0297L41.1707 40.2882L41.039 40.0297ZM44.2091 36.8595L43.9506 36.7278L44.2091 36.8595ZM44.2091 8.38903L44.4676 8.2573V8.2573L44.2091 8.38903ZM41.039 5.2189L41.1707 4.96037L41.039 5.2189ZM0.290162 7.43372C0.290162 3.58768 3.408 0.469849 7.25404 0.469849V-0.110474C3.08749 -0.110474 -0.290162 3.26718 -0.290162 7.43372H0.290162ZM0.290162 16.0347V7.43372H-0.290162V16.0347H0.290162ZM0.290162 16.8906V16.0347H-0.290162V16.8906H0.290162ZM0.290162 29.2139V16.8906H-0.290162V29.2139H0.290162ZM1.04918 36.7278C0.678173 35.9997 0.485393 35.1463 0.388028 33.9547C0.290387 32.7596 0.290162 31.25 0.290162 29.2139H-0.290162C-0.290162 31.2404 -0.290387 32.7777 -0.190368 34.0019C-0.0900711 35.2295 0.11247 36.1677 0.532107 36.9913L1.04918 36.7278ZM4.0925 39.7711C2.78217 39.1035 1.71683 38.0381 1.04918 36.7278L0.532107 36.9913C1.25539 38.4108 2.40951 39.5649 3.82904 40.2882L4.0925 39.7711ZM11.6065 40.5301C9.57035 40.5301 8.06072 40.5299 6.86565 40.4323C5.67397 40.3349 4.82064 40.1421 4.0925 39.7711L3.82904 40.2882C4.65263 40.7078 5.59082 40.9104 6.81839 41.0107C8.04258 41.1107 9.57993 41.1105 11.6065 41.1105V40.5301ZM33.3933 40.5301H11.6065V41.1105H33.3933V40.5301ZM40.9072 39.7711C40.1791 40.1421 39.3258 40.3349 38.1341 40.4323C36.939 40.5299 35.4294 40.5301 33.3933 40.5301V41.1105C35.4198 41.1105 36.9572 41.1107 38.1814 41.0107C39.4089 40.9104 40.3471 40.7078 41.1707 40.2882L40.9072 39.7711ZM43.9506 36.7278C43.2829 38.0381 42.2176 39.1035 40.9072 39.7711L41.1707 40.2882C42.5902 39.5649 43.7444 38.4108 44.4676 36.9913L43.9506 36.7278ZM44.7096 29.2139C44.7096 31.25 44.7094 32.7596 44.6117 33.9547C44.5144 35.1463 44.3216 35.9997 43.9506 36.7278L44.4676 36.9913C44.8873 36.1677 45.0898 35.2295 45.1901 34.0019C45.2901 32.7777 45.2899 31.2404 45.2899 29.2139H44.7096ZM44.7096 16.0347V29.2139H45.2899V16.0347H44.7096ZM43.9506 8.52076C44.3216 9.2489 44.5144 10.1022 44.6117 11.2939C44.7094 12.489 44.7096 13.9986 44.7096 16.0347H45.2899C45.2899 14.0082 45.2901 12.4708 45.1901 11.2467C45.0898 10.0191 44.8873 9.08089 44.4676 8.2573L43.9506 8.52076ZM40.9072 5.47744C42.2176 6.14509 43.2829 7.21043 43.9506 8.52077L44.4676 8.2573C43.7444 6.83777 42.5902 5.68366 41.1707 4.96037L40.9072 5.47744ZM33.3933 4.71842C35.4294 4.71842 36.939 4.71865 38.1341 4.81629C39.3258 4.91365 40.1791 5.10643 40.9072 5.47744L41.1707 4.96037C40.3471 4.54073 39.4089 4.33819 38.1814 4.23789C36.9572 4.13787 35.4198 4.1381 33.3933 4.1381V4.71842ZM28.5237 4.71842H33.3933V4.1381H28.5237V4.71842ZM7.25404 0.469849H17.4392V-0.110474H7.25404V0.469849ZM28.5237 4.1381C26.745 4.1381 24.9816 3.12637 23.1268 2.05284C21.3113 1.00209 19.4045 -0.110474 17.4392 -0.110474V0.469849C19.2178 0.469849 20.9813 1.48158 22.8361 2.55511C24.6515 3.60586 26.5584 4.71842 28.5237 4.71842V4.1381Z" fill="url(#paint1_linear_509_6842)" mask="url(#path-1-inside-1_509_6842)"/>
<path d="M0.790643 36.8595L1.04918 36.7278L0.790643 36.8595ZM3.96077 40.0297L3.82904 40.2882L3.96077 40.0297ZM41.039 40.0297L41.1707 40.2882L41.039 40.0297ZM44.2091 36.8595L43.9506 36.7278L44.2091 36.8595ZM44.2091 8.38903L44.4676 8.2573V8.2573L44.2091 8.38903ZM41.039 5.2189L41.1707 4.96037L41.039 5.2189ZM0.290162 7.43372C0.290162 3.58768 3.408 0.469849 7.25404 0.469849V-0.110474C3.08749 -0.110474 -0.290162 3.26718 -0.290162 7.43372H0.290162ZM0.290162 16.0347V7.43372H-0.290162V16.0347H0.290162ZM0.290162 16.8906V16.0347H-0.290162V16.8906H0.290162ZM0.290162 29.2139V16.8906H-0.290162V29.2139H0.290162ZM1.04918 36.7278C0.678173 35.9997 0.485393 35.1463 0.388028 33.9547C0.290387 32.7596 0.290162 31.25 0.290162 29.2139H-0.290162C-0.290162 31.2404 -0.290387 32.7777 -0.190368 34.0019C-0.0900711 35.2295 0.11247 36.1677 0.532107 36.9913L1.04918 36.7278ZM4.0925 39.7711C2.78217 39.1035 1.71683 38.0381 1.04918 36.7278L0.532107 36.9913C1.25539 38.4108 2.40951 39.5649 3.82904 40.2882L4.0925 39.7711ZM11.6065 40.5301C9.57035 40.5301 8.06072 40.5299 6.86565 40.4323C5.67397 40.3349 4.82064 40.1421 4.0925 39.7711L3.82904 40.2882C4.65263 40.7078 5.59082 40.9104 6.81839 41.0107C8.04258 41.1107 9.57993 41.1105 11.6065 41.1105V40.5301ZM33.3933 40.5301H11.6065V41.1105H33.3933V40.5301ZM40.9072 39.7711C40.1791 40.1421 39.3258 40.3349 38.1341 40.4323C36.939 40.5299 35.4294 40.5301 33.3933 40.5301V41.1105C35.4198 41.1105 36.9572 41.1107 38.1814 41.0107C39.4089 40.9104 40.3471 40.7078 41.1707 40.2882L40.9072 39.7711ZM43.9506 36.7278C43.2829 38.0381 42.2176 39.1035 40.9072 39.7711L41.1707 40.2882C42.5902 39.5649 43.7444 38.4108 44.4676 36.9913L43.9506 36.7278ZM44.7096 29.2139C44.7096 31.25 44.7094 32.7596 44.6117 33.9547C44.5144 35.1463 44.3216 35.9997 43.9506 36.7278L44.4676 36.9913C44.8873 36.1677 45.0898 35.2295 45.1901 34.0019C45.2901 32.7777 45.2899 31.2404 45.2899 29.2139H44.7096ZM44.7096 16.0347V29.2139H45.2899V16.0347H44.7096ZM43.9506 8.52076C44.3216 9.2489 44.5144 10.1022 44.6117 11.2939C44.7094 12.489 44.7096 13.9986 44.7096 16.0347H45.2899C45.2899 14.0082 45.2901 12.4708 45.1901 11.2467C45.0898 10.0191 44.8873 9.08089 44.4676 8.2573L43.9506 8.52076ZM40.9072 5.47744C42.2176 6.14509 43.2829 7.21043 43.9506 8.52077L44.4676 8.2573C43.7444 6.83777 42.5902 5.68366 41.1707 4.96037L40.9072 5.47744ZM33.3933 4.71842C35.4294 4.71842 36.939 4.71865 38.1341 4.81629C39.3258 4.91365 40.1791 5.10643 40.9072 5.47744L41.1707 4.96037C40.3471 4.54073 39.4089 4.33819 38.1814 4.23789C36.9572 4.13787 35.4198 4.1381 33.3933 4.1381V4.71842ZM28.5237 4.71842H33.3933V4.1381H28.5237V4.71842ZM7.25404 0.469849H17.4392V-0.110474H7.25404V0.469849ZM28.5237 4.1381C26.745 4.1381 24.9816 3.12637 23.1268 2.05284C21.3113 1.00209 19.4045 -0.110474 17.4392 -0.110474V0.469849C19.2178 0.469849 20.9813 1.48158 22.8361 2.55511C24.6515 3.60586 26.5584 4.71842 28.5237 4.71842V4.1381Z" fill="url(#paint2_linear_509_6842)" mask="url(#path-1-inside-1_509_6842)"/>
<path d="M0.000127063 21.9712C0.000127063 17.903 -0.0282426 15.789 0.762835 14.2351C1.45869 12.8683 2.55694 11.7718 3.92262 11.0753C5.4752 10.2836 7.59378 10.3126 11.6587 10.3126H33.3413C37.4062 10.3126 39.5248 10.2836 41.0774 11.0753C42.4431 11.7718 43.5413 12.8683 44.2372 14.2351C45.0282 15.789 44.9999 17.903 44.9999 21.9712V29.1624C44.9999 33.2306 45.0282 35.3446 44.2372 36.8984C43.5413 38.2652 42.4431 39.3618 41.0774 40.0582C39.5248 40.8499 37.4062 40.8209 33.3413 40.8209H11.6587C7.59378 40.8209 5.4752 40.8499 3.92262 40.0582C2.55694 39.3618 1.45869 38.2652 0.762835 36.8984C-0.0282426 35.3446 0.000127063 33.2306 0.000127063 29.1624V21.9712Z" fill="url(#paint3_radial_509_6842)"/>
<path d="M0.145208 21.9712C0.145208 21.8337 0.145176 21.6986 0.145145 21.5656C0.144712 19.728 0.144379 18.3129 0.229506 17.1711C0.320698 15.9479 0.509251 15.053 0.892124 14.301C1.57403 12.9616 2.65005 11.8871 3.98853 11.2046C4.73987 10.8215 5.63549 10.6329 6.8593 10.5418C7.99997 10.4569 9.41285 10.4572 11.2451 10.4576C11.3807 10.4577 11.5185 10.4577 11.6587 10.4577H33.3413C33.4815 10.4577 33.6193 10.4577 33.7549 10.4576C35.5872 10.4572 37 10.4569 38.1407 10.5418C39.3645 10.6329 40.2601 10.8215 41.0115 11.2046C42.35 11.8871 43.426 12.9616 44.1079 14.301C44.4907 15.053 44.6793 15.9479 44.7705 17.1711C44.8556 18.3129 44.8553 19.728 44.8549 21.5656C44.8548 21.6985 44.8548 21.8337 44.8548 21.9712V29.1624C44.8548 29.2999 44.8548 29.435 44.8549 29.568C44.8553 31.4056 44.8556 32.8207 44.7705 33.9625C44.6793 35.1857 44.4907 36.0806 44.1079 36.8326C43.426 38.172 42.35 39.2464 41.0115 39.929C40.2601 40.3121 39.3645 40.5007 38.1407 40.5918C37 40.6767 35.5871 40.6764 33.7549 40.6759C33.6193 40.6759 33.4815 40.6759 33.3413 40.6759H11.6587C11.5185 40.6759 11.3807 40.6759 11.2451 40.6759C9.41285 40.6764 7.99997 40.6767 6.8593 40.5918C5.63549 40.5007 4.73987 40.3121 3.98853 39.929C2.65005 39.2464 1.57403 38.172 0.892124 36.8326C0.509251 36.0806 0.320698 35.1857 0.229506 33.9625C0.144379 32.8207 0.144712 31.4055 0.145145 29.5679C0.145176 29.435 0.145208 29.2998 0.145208 29.1624V21.9712Z" stroke="url(#paint4_linear_509_6842)" stroke-width="0.290162"/>
<defs>
<radialGradient id="paint0_radial_509_6842" cx="0" cy="0" r="1" gradientUnits="userSpaceOnUse" gradientTransform="translate(44.9998 40.8654) rotate(-135.976) scale(60.5631 64.7023)">
<stop stop-color="#005FF9"/>
<stop offset="1" stop-color="#72CCFF"/>
</radialGradient>
<linearGradient id="paint1_linear_509_6842" x1="0" y1="0.179687" x2="43.4905" y2="44.4524" gradientUnits="userSpaceOnUse">
<stop offset="0.508799" stop-color="#85BFF8"/>
<stop offset="1" stop-color="#1050A9"/>
</linearGradient>
<linearGradient id="paint2_linear_509_6842" x1="0" y1="0.179688" x2="50.2864" y2="34.905" gradientUnits="userSpaceOnUse">
<stop offset="0.228092" stop-color="#ACDFFB"/>
<stop offset="0.99027" stop-color="#005FF9"/>
</linearGradient>
<radialGradient id="paint3_radial_509_6842" cx="0" cy="0" r="1" gradientUnits="userSpaceOnUse" gradientTransform="translate(45 40.8211) rotate(-145.864) scale(54.367 67.383)">
<stop stop-color="#005FF9"/>
<stop offset="1" stop-color="#11A8FD"/>
<stop offset="1" stop-color="#B8E5FF"/>
</radialGradient>
<linearGradient id="paint4_linear_509_6842" x1="0" y1="10.3125" x2="40.1857" y2="47.32" gradientUnits="userSpaceOnUse">
<stop offset="0.228092" stop-color="#9EDCFF"/>
<stop offset="0.946844" stop-color="#005FF9"/>
</linearGradient>
</defs>
</svg>
