<svg width="47" height="46" viewBox="0 0 47 46" fill="none" xmlns="http://www.w3.org/2000/svg">
<rect x="0.5" width="46" height="46" rx="23" fill="white"/>
<path d="M27.5 21C28.6046 21 29.5 20.1046 29.5 19C29.5 17.8954 28.6046 17 27.5 17C26.3954 17 25.5 17.8954 25.5 19C25.5 20.1046 26.3954 21 27.5 21Z" stroke="#11A8FD" stroke-width="1.5"/>
<path d="M13.5 21.1541L14.48 21.0131C21.46 20.0101 27.425 26.0301 26.358 33.0001" stroke="#11A8FD" stroke-width="1.5" stroke-linecap="round"/>
<path d="M33.5002 24.3852L32.5272 24.2502C29.6832 23.8562 27.1102 25.2722 25.7852 27.5002" stroke="#11A8FD" stroke-width="1.5" stroke-linecap="round"/>
<path d="M33.5 23C33.5 27.714 33.5 30.071 32.035 31.535C30.572 33 28.214 33 23.5 33C18.786 33 16.429 33 14.964 31.535C13.5 30.072 13.5 27.714 13.5 23C13.5 18.286 13.5 15.929 14.964 14.464C16.43 13 18.786 13 23.5 13C28.214 13 30.571 13 32.035 14.464C33.009 15.438 33.335 16.807 33.445 19" stroke="#11A8FD" stroke-width="1.5" stroke-linecap="round"/>
</svg>
