<svg width="47" height="46" viewBox="0 0 47 46" fill="none" xmlns="http://www.w3.org/2000/svg">
<rect x="0.5" width="46" height="46" rx="23" fill="white"/>
<path d="M32.5 14V26.5C32.5 27.4283 32.1313 28.3185 31.4749 28.9749C30.8185 29.6313 29.9283 30 29 30C28.0717 30 27.1815 29.6313 26.5251 28.9749C25.8687 28.3185 25.5 27.4283 25.5 26.5C25.5 25.5717 25.8687 24.6815 26.5251 24.0251C27.1815 23.3687 28.0717 23 29 23C29.54 23 30.05 23.12 30.5 23.34V17.47L20.5 19.6V28.5C20.5 29.4283 20.1313 30.3185 19.4749 30.9749C18.8185 31.6313 17.9283 32 17 32C16.0717 32 15.1815 31.6313 14.5251 30.9749C13.8687 30.3185 13.5 29.4283 13.5 28.5C13.5 27.5717 13.8687 26.6815 14.5251 26.0251C15.1815 25.3687 16.0717 25 17 25C17.54 25 18.05 25.12 18.5 25.34V17L32.5 14Z" fill="#FF0037"/>
</svg>
