<svg width="47" height="46" viewBox="0 0 47 46" fill="none" xmlns="http://www.w3.org/2000/svg">
<rect x="0.5" width="46" height="46" rx="23" fill="white"/>
<path d="M28.83 15.0545L31.816 16.0505C31.9406 16.092 32.0559 16.1577 32.1551 16.2437C32.2544 16.3297 32.3357 16.4345 32.3945 16.5519C32.4533 16.6694 32.4883 16.7973 32.4977 16.9283C32.507 17.0593 32.4905 17.1909 32.449 17.3155C32.4075 17.4402 32.3419 17.5554 32.2558 17.6547C32.1698 17.7539 32.0651 17.8352 31.9476 17.894C31.8301 17.9528 31.7022 17.9879 31.5712 17.9972C31.4402 18.0066 31.3086 17.99 31.184 17.9485L29.5 17.3865V28.4995C29.4998 29.2579 29.2534 29.9957 28.7977 30.6019C28.342 31.2081 27.7018 31.6498 26.9734 31.8607C26.2449 32.0716 25.4677 32.0402 24.7586 31.7713C24.0496 31.5023 23.4471 31.0103 23.0418 30.3693C22.6365 29.7284 22.4503 28.9731 22.5113 28.2172C22.5724 27.4613 22.8772 26.7457 23.3801 26.178C23.883 25.6104 24.5566 25.2214 25.2996 25.0696C26.0426 24.9179 26.8148 25.0115 27.5 25.3365V16.0135C27.5 15.3235 28.175 14.8365 28.83 15.0545ZM19.5 27.9995C19.7652 27.9995 20.0196 28.1049 20.2071 28.2924C20.3946 28.48 20.5 28.7343 20.5 28.9995C20.5 29.2648 20.3946 29.5191 20.2071 29.7066C20.0196 29.8942 19.7652 29.9995 19.5 29.9995H15.5C15.2348 29.9995 14.9804 29.8942 14.7929 29.7066C14.6054 29.5191 14.5 29.2648 14.5 28.9995C14.5 28.7343 14.6054 28.48 14.7929 28.2924C14.9804 28.1049 15.2348 27.9995 15.5 27.9995H19.5ZM21.5 21.9995C21.7652 21.9995 22.0196 22.1049 22.2071 22.2924C22.3946 22.48 22.5 22.7343 22.5 22.9995C22.5 23.2648 22.3946 23.5191 22.2071 23.7066C22.0196 23.8942 21.7652 23.9995 21.5 23.9995H15.5C15.2348 23.9995 14.9804 23.8942 14.7929 23.7066C14.6054 23.5191 14.5 23.2648 14.5 22.9995C14.5 22.7343 14.6054 22.48 14.7929 22.2924C14.9804 22.1049 15.2348 21.9995 15.5 21.9995H21.5ZM24.5 15.9995C24.7549 15.9998 25 16.0974 25.1854 16.2724C25.3707 16.4474 25.4822 16.6865 25.4972 16.9409C25.5121 17.1954 25.4293 17.4459 25.2657 17.6414C25.1021 17.8368 24.8701 17.9624 24.617 17.9925L24.5 17.9995H15.5C15.2451 17.9993 15 17.9017 14.8146 17.7267C14.6293 17.5517 14.5178 17.3126 14.5028 17.0581C14.4879 16.8037 14.5707 16.5532 14.7343 16.3577C14.8979 16.1623 15.1299 16.0366 15.383 16.0065L15.5 15.9995H24.5Z" fill="#1ACFB9"/>
</svg>
