<svg width="18" height="17" viewBox="0 0 18 17" fill="none" xmlns="http://www.w3.org/2000/svg">
<path d="M8.28671 1.62234C8.51122 0.931355 9.48878 0.931358 9.71329 1.62234L10.6441 4.48708C10.9453 5.41413 11.8092 6.0418 12.784 6.0418H15.7962C16.5227 6.0418 16.8248 6.97151 16.237 7.39856L13.8001 9.16907C13.0115 9.74202 12.6815 10.7576 12.9827 11.6846L13.9135 14.5494C14.1381 15.2404 13.3472 15.815 12.7594 15.3879L10.3225 13.6174C9.53392 13.0445 8.46608 13.0445 7.67748 13.6174L5.24059 15.3879C4.6528 15.815 3.86194 15.2404 4.08645 14.5494L5.01727 11.6846C5.31848 10.7576 4.9885 9.74202 4.19991 9.16907L1.76301 7.39856C1.17522 6.97151 1.47731 6.0418 2.20385 6.0418H5.21602C6.19078 6.0418 7.05468 5.41414 7.3559 4.48708L8.28671 1.62234Z" stroke="#005FF9" stroke-width="1.5"/>
</svg>
