<svg width="18" height="18" viewBox="0 0 18 18" fill="none" xmlns="http://www.w3.org/2000/svg">
<path fill-rule="evenodd" clip-rule="evenodd" d="M9 16.5C13.1421 16.5 16.5 13.1421 16.5 9C16.5 4.85786 13.1421 1.5 9 1.5C4.85786 1.5 1.5 4.85786 1.5 9C1.5 13.1421 4.85786 16.5 9 16.5ZM9 18C13.9706 18 18 13.9706 18 9C18 4.02944 13.9706 0 9 0C4.02944 0 0 4.02944 0 9C0 13.9706 4.02944 18 9 18ZM9.75 12V13.5H8.25V12H9.75ZM7.5 7.4318C7.5 6.66263 8.1497 6 9 6C9.8503 6 10.5 6.66263 10.5 7.4318C10.5 7.739 10.3151 8.1031 9.9076 8.5159C9.5126 8.9161 9.0104 9.2593 8.5928 9.5292L8.25 9.7509V11.25H9.75V10.5623C10.1312 10.303 10.5828 9.9671 10.9752 9.5696C11.4818 9.0564 12 8.3296 12 7.4318C12 5.79103 10.6349 4.5 9 4.5C7.3651 4.5 6 5.79103 6 7.4318H7.5Z" fill="#005FF9"/>
</svg>
